<svg width="291" height="141" viewBox="0 0 291 141" fill="none" xmlns="http://www.w3.org/2000/svg">
<path d="M287.198 70.2054C287.636 72.6562 286.87 75.3225 284.709 77.1745C283.433 78.2685 282.098 79.274 280.704 80.1972C279.068 81.2814 277.361 82.2484 275.594 83.0899C272.328 84.6388 268.848 85.7557 265.253 86.3987L112.978 113.63C106.398 114.807 99.6878 115.08 93.0368 114.438L31.4063 108.516C24.1642 107.82 21.0432 98.9786 26.2435 93.893L6.88452 47.8838L22.4644 45.0976L71.8918 86.348L258.419 52.991C263.009 52.1701 267.755 53.6033 270.996 56.9258C271.091 57.0077 271.168 57.0929 271.252 57.1829C272.793 58.8491 274.532 60.3068 276.416 61.5406C276.92 61.8709 277.44 62.186 277.969 62.481C278.004 62.5056 278.039 62.5242 278.073 62.5428C279.44 63.3063 280.874 63.9589 282.36 64.4908C285.075 65.4586 286.753 67.7186 287.198 70.2054Z" fill="#46C3E0"/>
<path d="M167.781 113.354L198.996 107.771C200.537 107.496 201.563 106.023 201.287 104.482L198.91 91.1873C198.634 89.6461 197.162 88.6201 195.62 88.8958L164.405 94.478C159.193 95.4102 155.723 100.392 156.655 105.604C157.588 110.816 162.569 114.286 167.781 113.354Z" fill="#3EB3C6"/>
<path d="M49.905 93.0628L13.6565 99.5451C11.1745 99.989 8.8025 98.3367 8.35864 95.8547C7.91478 93.3727 9.56713 91.0006 12.0491 90.5568L48.2975 84.0744C50.7795 83.6305 53.1516 85.2829 53.5954 87.7649C54.0393 90.2469 52.3869 92.6189 49.905 93.0628Z" fill="#67DCEF"/>
<path d="M277.969 62.481L271.288 63.6758C267.651 64.3263 264.169 61.9064 263.518 58.2631L270.996 56.9258C271.091 57.0077 271.168 57.0929 271.252 57.1829C272.793 58.8491 274.532 60.3068 276.416 61.5406C276.92 61.8709 277.44 62.186 277.969 62.481Z" fill="#96E0DE"/>
<path d="M236.673 72.958C236.379 73.0105 236.074 73.0341 235.776 73.0257C235.479 73.0232 235.181 72.9837 234.892 72.924C234.596 72.8595 234.314 72.7677 234.039 72.6499C233.763 72.526 233.502 72.381 233.255 72.2088C232.273 71.5248 231.586 70.448 231.375 69.2675C231.164 68.0871 231.435 66.8388 232.119 65.8569C232.292 65.6097 232.486 65.3832 232.702 65.1715C232.918 64.9658 233.152 64.7819 233.407 64.6187C233.657 64.4626 233.923 64.3224 234.201 64.217C234.761 63.9932 235.354 63.8872 235.956 63.9031C236.254 63.9055 236.551 63.9451 236.846 64.0036C237.136 64.0693 237.419 64.161 237.693 64.2789C237.969 64.4027 238.23 64.5477 238.477 64.72C239.465 65.4029 240.152 66.4796 240.363 67.6601C240.576 68.8466 240.303 70.0888 239.613 71.0718C239.441 71.319 239.246 71.5455 239.031 71.7572C238.814 71.9629 238.581 72.1468 238.332 72.3089C238.075 72.4661 237.81 72.6063 237.532 72.7117C237.255 72.823 236.967 72.9055 236.673 72.958Z" fill="#96E0DE"/>
<path d="M222.201 75.546C221.908 75.5985 221.609 75.621 221.305 75.6136C221.007 75.6111 220.71 75.5716 220.421 75.512C220.131 75.4463 219.842 75.3557 219.568 75.2378C219.292 75.114 219.031 74.9689 218.784 74.7967C218.544 74.6294 218.316 74.4289 218.104 74.2132C217.9 74.0025 217.715 73.7635 217.553 73.5142C217.397 73.2638 217.255 72.9923 217.151 72.7203C217.039 72.4374 216.956 72.1491 216.904 71.8555C216.851 71.5619 216.829 71.2629 216.836 70.9585C216.839 70.6673 216.878 70.3636 216.938 70.0746C217.003 69.7846 217.094 69.4963 217.213 69.2277C217.337 68.952 217.481 68.6851 217.648 68.4449C217.82 68.1977 218.015 67.9712 218.23 67.7595C218.447 67.5537 218.686 67.3688 218.936 67.2127C219.186 67.0506 219.451 66.9104 219.729 66.805C220.289 66.5812 220.888 66.474 221.485 66.491C221.782 66.4935 222.08 66.533 222.376 66.5976C222.665 66.6572 222.953 66.7479 223.222 66.8668C223.498 66.9907 223.764 67.1346 224.006 67.3079C224.252 67.4742 224.479 67.6746 224.685 67.8914C224.89 68.1021 225.081 68.3401 225.237 68.5904C225.399 68.8397 225.534 69.1124 225.645 69.3833C225.757 69.6662 225.839 69.9544 225.892 70.2481C225.944 70.5417 225.967 70.8407 225.96 71.145C225.95 71.4374 225.918 71.74 225.852 72.03C225.792 72.3189 225.696 72.6083 225.577 72.8769C225.459 73.1516 225.315 73.4185 225.142 73.6597C224.975 73.9059 224.775 74.1334 224.559 74.3452C224.348 74.5498 224.109 74.7348 223.86 74.8969C223.604 75.054 223.338 75.1943 223.06 75.2996C222.783 75.411 222.495 75.4935 222.201 75.546Z" fill="#96E0DE"/>
<path d="M207.73 78.1339C206.55 78.345 205.301 78.0735 204.319 77.3836C204.072 77.2173 203.845 77.0168 203.633 76.8012C203.428 76.5904 203.243 76.3514 203.081 76.1021C202.925 75.8517 202.784 75.5802 202.68 75.3082C202.567 75.0253 202.485 74.737 202.432 74.4434C202.22 73.2569 202.493 72.0147 203.183 71.0318C204.039 69.8026 205.499 69.0468 207.02 69.0779C207.311 69.0814 207.615 69.1199 207.904 69.1795C208.194 69.2451 208.482 69.3358 208.751 69.4547C209.026 69.5786 209.293 69.7226 209.534 69.8958C210.522 70.5787 211.21 71.6555 211.421 72.836C211.473 73.1296 211.496 73.4286 211.488 73.7329C211.485 74.0242 211.446 74.3279 211.387 74.6169C211.321 74.9069 211.23 75.1952 211.111 75.4638C210.988 75.7395 210.844 76.0064 210.67 76.2477C209.987 77.2355 208.911 77.9228 207.73 78.1339Z" fill="#96E0DE"/>
<path d="M193.259 80.7218C192.965 80.7743 192.666 80.7969 192.368 80.7884C192.071 80.7859 191.773 80.7464 191.478 80.6878C191.188 80.6222 190.9 80.5315 190.631 80.4126C190.355 80.2888 190.089 80.1448 189.847 79.9715C189.601 79.8053 189.374 79.6048 189.168 79.388C188.963 79.1773 188.772 78.9393 188.616 78.689C188.454 78.4397 188.32 78.173 188.208 77.8961C188.096 77.6132 188.014 77.325 187.961 77.0313C187.909 76.7377 187.886 76.4387 187.893 76.1344C187.903 75.8421 187.935 75.5394 188.001 75.2494C188.061 74.9605 188.157 74.6711 188.276 74.4025C188.394 74.1279 188.538 73.8609 188.711 73.6197C188.878 73.3735 189.078 73.146 189.294 72.9343C189.505 72.7296 189.744 72.5446 189.994 72.3885C190.249 72.2254 190.515 72.0851 190.793 71.9798C192.196 71.4258 193.834 71.6276 195.069 72.4827C195.309 72.65 195.537 72.8505 195.749 73.0662C195.953 73.2769 196.138 73.5159 196.3 73.7652C196.456 74.0156 196.598 74.2872 196.702 74.5591C196.814 74.842 196.897 75.1303 196.949 75.4239C197.002 75.7176 197.025 76.0165 197.017 76.3209C197.015 76.6181 196.975 76.9159 196.915 77.2048C196.85 77.4948 196.759 77.7831 196.64 78.0517C196.516 78.3274 196.372 78.5943 196.205 78.8345C195.516 79.8235 194.445 80.5097 193.259 80.7218Z" fill="#96E0DE"/>
<path d="M120.908 93.6604C120.615 93.713 120.316 93.7355 120.017 93.727C119.72 93.7245 119.416 93.6861 119.128 93.6265C118.838 93.5608 118.549 93.4701 118.281 93.3512C118.005 93.2274 117.738 93.0834 117.497 92.9101C117.251 92.7439 117.023 92.5434 116.811 92.3277C116.607 92.117 116.422 91.8779 116.26 91.6287C116.103 91.3783 115.962 91.1067 115.858 90.8348C115.745 90.5518 115.663 90.2636 115.61 89.97C115.399 88.7895 115.671 87.5413 116.361 86.5583C116.527 86.3121 116.728 86.0846 116.944 85.8789C117.154 85.6682 117.393 85.4832 117.643 85.3272C117.893 85.1651 118.164 85.0238 118.442 84.9184C119.846 84.3644 121.484 84.5662 122.713 85.4224C123.7 86.1053 124.388 87.1821 124.599 88.3625C124.651 88.6562 124.674 88.9551 124.667 89.2595C124.663 89.5508 124.625 89.8545 124.565 90.1434C124.499 90.4334 124.409 90.7217 124.29 90.9903C124.166 91.266 124.022 91.533 123.849 91.7742C123.166 92.7621 122.095 93.4483 120.908 93.6604Z" fill="#96E0DE"/>
<path d="M106.437 96.2484C106.143 96.3009 105.844 96.3234 105.546 96.315C105.249 96.3125 104.951 96.273 104.656 96.2144C104.366 96.1488 104.084 96.057 103.809 95.9392C103.534 95.8153 103.273 95.6703 103.025 95.4981C102.779 95.3318 102.552 95.1313 102.346 94.9146C102.141 94.7038 101.956 94.4648 101.794 94.2155C101.632 93.9662 101.497 93.6936 101.387 93.4227C101.274 93.1398 101.192 92.8515 101.139 92.5579C101.087 92.2643 101.064 91.9653 101.073 91.667C101.081 91.3686 101.114 91.066 101.179 90.776C101.245 90.486 101.335 90.1977 101.454 89.929C101.572 89.6544 101.716 89.3875 101.89 89.1463C102.062 88.899 102.256 88.6725 102.472 88.4608C102.689 88.2551 102.922 88.0712 103.172 87.9151C103.427 87.752 103.693 87.6117 103.971 87.5063C104.531 87.2825 105.124 87.1765 105.727 87.1924C106.024 87.1948 106.322 87.2344 106.612 87.3C106.901 87.3596 107.189 87.4503 107.463 87.5682C107.739 87.692 108 87.8371 108.247 88.0093C108.487 88.1766 108.721 88.376 108.927 88.5927C109.131 88.8035 109.316 89.0425 109.478 89.2918C109.641 89.5411 109.776 89.8137 109.887 90.0906C109.993 90.3686 110.075 90.6569 110.128 90.9505C110.18 91.2441 110.203 91.5431 110.201 91.8464C110.192 92.1387 110.159 92.4413 110.094 92.7314C110.028 93.0214 109.937 93.3097 109.818 93.5783C109.7 93.8529 109.551 94.1209 109.383 94.3611C109.211 94.6083 109.016 94.8348 108.801 95.0465C108.584 95.2522 108.345 95.4372 108.096 95.5993C107.845 95.7554 107.58 95.8956 107.302 96.001C107.025 96.1123 106.731 96.1959 106.437 96.2484Z" fill="#96E0DE"/>
<path d="M178.788 83.3098C178.5 83.3612 178.195 83.3848 177.897 83.3763C177.599 83.3739 177.302 83.3343 177.007 83.2758C176.717 83.2101 176.434 83.1184 176.16 83.0006C175.884 82.8767 175.623 82.7317 175.376 82.5594C174.388 81.8765 173.701 80.7998 173.49 79.6193C173.437 79.3257 173.415 79.0267 173.423 78.7283C173.432 78.43 173.464 78.1274 173.53 77.8374C173.595 77.5473 173.686 77.259 173.805 76.9904C173.923 76.7158 174.073 76.4478 174.24 76.2076C174.929 75.2187 176 74.5325 177.18 74.3214C178.367 74.1092 179.609 74.3818 180.598 75.0707C180.838 75.238 181.072 75.4374 181.277 75.6541C181.482 75.8649 181.667 76.1039 181.829 76.3532C181.991 76.6025 182.126 76.8751 182.238 77.152C182.349 77.4289 182.426 77.7183 182.478 78.0119C182.531 78.3055 182.559 78.6034 182.552 78.9077C182.542 79.2001 182.51 79.5027 182.444 79.7927C182.378 80.0827 182.288 80.3711 182.169 80.6397C182.051 80.9143 181.901 81.1823 181.734 81.4225C181.045 82.4114 179.974 83.0976 178.788 83.3098Z" fill="#96E0DE"/>
<path d="M164.322 85.8966C163.136 86.1088 161.894 85.8363 160.905 85.1474C160.664 84.9801 160.431 84.7806 160.225 84.5639C160.021 84.3531 159.836 84.1141 159.674 83.8648C159.511 83.6155 159.376 83.3429 159.266 83.072C159.153 82.7891 159.077 82.4998 159.024 82.2061C158.972 81.9125 158.943 81.6146 158.952 81.3163C158.96 81.0179 158.993 80.7153 159.058 80.4253C159.124 80.1353 159.215 79.847 159.334 79.5783C159.451 79.3037 159.601 79.0357 159.769 78.7956C160.458 77.8066 161.528 77.1204 162.715 76.9082C163.895 76.6971 165.138 76.9697 166.127 77.6586C166.367 77.8259 166.6 78.0253 166.806 78.242C167.011 78.4528 167.196 78.6918 167.358 78.9411C167.52 79.1904 167.655 79.463 167.766 79.7399C167.878 80.0168 167.96 80.3051 168.013 80.5987C168.065 80.8924 168.088 81.1913 168.08 81.4957C168.071 81.788 168.038 82.0906 167.973 82.3807C167.907 82.6707 167.817 82.959 167.698 83.2276C167.58 83.5022 167.43 83.7702 167.262 84.0104C166.574 84.9993 165.503 85.6855 164.322 85.8966Z" fill="#96E0DE"/>
<path d="M149.851 88.4846C149.557 88.5371 149.258 88.5596 148.954 88.5522C148.657 88.5497 148.359 88.5102 148.07 88.4506C147.78 88.385 147.492 88.2943 147.217 88.1764C146.941 88.0526 146.68 87.9075 146.433 87.7353C146.193 87.568 145.96 87.3686 145.754 87.1518C145.549 86.9411 145.364 86.7021 145.202 86.4528C145.04 86.2035 144.905 85.9309 144.794 85.66C144.688 85.376 144.605 85.0877 144.553 84.7941C144.5 84.5005 144.478 84.2015 144.479 83.8982C144.489 83.6059 144.521 83.3032 144.587 83.0132C144.653 82.7232 144.743 82.4349 144.862 82.1663C144.98 81.8917 145.13 81.6237 145.297 81.3835C145.47 81.1363 145.664 80.9098 145.881 80.7041C146.098 80.4983 146.335 80.3074 146.586 80.1513C146.835 79.9892 147.101 79.849 147.379 79.7436C147.938 79.5198 148.532 79.4137 149.134 79.4296C149.432 79.4321 149.729 79.4716 150.025 79.5362C150.314 79.5958 150.598 79.6936 150.872 79.8114C151.147 79.9293 151.408 80.0743 151.655 80.2465C151.901 80.4128 152.129 80.6132 152.335 80.83C152.539 81.0408 152.724 81.2798 152.886 81.5291C153.048 81.7783 153.184 82.051 153.294 82.3219C153.406 82.6048 153.489 82.8931 153.541 83.1867C153.594 83.4803 153.616 83.7793 153.609 84.0836C153.599 84.376 153.567 84.6786 153.501 84.9686C153.436 85.2586 153.345 85.5469 153.226 85.8156C153.108 86.0902 152.964 86.3571 152.791 86.5983C152.619 86.8456 152.424 87.0721 152.209 87.2838C151.992 87.4895 151.759 87.6734 151.51 87.8355C151.253 87.9926 150.988 88.1329 150.71 88.2382C150.433 88.3496 150.145 88.4321 149.851 88.4846Z" fill="#96E0DE"/>
<path d="M135.38 91.0725C134.193 91.2847 132.951 91.0121 131.968 90.3222C131.722 90.1559 131.494 89.9555 131.282 89.7398C131.078 89.529 130.893 89.29 130.731 89.0407C130.575 88.7904 130.433 88.5188 130.329 88.2468C130.217 87.9639 130.134 87.6756 130.082 87.382C130.029 87.0884 130.007 86.7894 130.014 86.4851C130.018 86.1938 130.056 85.8901 130.116 85.6012C130.181 85.3111 130.272 85.0228 130.391 84.7542C130.515 84.4785 130.659 84.2116 130.832 83.9704C131.682 82.7423 133.154 81.9843 134.663 82.0175C134.96 82.02 135.264 82.0585 135.554 82.1241C135.843 82.1838 136.131 82.2744 136.4 82.3934C136.676 82.5172 136.943 82.6612 137.184 82.8345C137.43 83.0007 137.658 83.2012 137.869 83.4168C138.074 83.6276 138.259 83.8666 138.415 84.117C138.577 84.3663 138.718 84.6378 138.823 84.9098C138.935 85.1927 139.018 85.481 139.07 85.7746C139.123 86.0682 139.145 86.3672 139.138 86.6715C139.134 86.9628 139.096 87.2665 139.03 87.5565C138.97 87.8455 138.88 88.1338 138.761 88.4024C138.637 88.6781 138.493 88.945 138.32 89.1863C138.153 89.4324 137.953 89.66 137.737 89.8717C137.527 90.0764 137.288 90.2613 137.038 90.4234C136.788 90.5795 136.516 90.7208 136.238 90.8262C135.961 90.9375 135.673 91.02 135.38 91.0725Z" fill="#96E0DE"/>
<path d="M201.013 92.5687L150.278 101.642C147.796 102.086 145.424 100.433 144.98 97.9512C144.536 95.4692 146.189 93.0972 148.671 92.6533L199.405 83.5803C201.887 83.1365 204.259 84.7888 204.703 87.2708C205.147 89.7528 203.495 92.1249 201.013 92.5687Z" fill="#67DCEF"/>
<path d="M287.198 70.2054C287.636 72.6562 286.87 75.3225 284.709 77.1745C283.433 78.2684 282.098 79.274 280.704 80.1972C278.039 78.4663 276.068 75.6772 275.465 72.3036C274.818 68.6843 275.881 65.1548 278.073 62.5428C279.44 63.3063 280.874 63.9589 282.36 64.4908C285.075 65.4586 286.753 67.7186 287.198 70.2054Z" fill="#67DCEF"/>
</svg>
