<svg width="324" height="324" viewBox="0 0 324 324" fill="none" xmlns="http://www.w3.org/2000/svg">
<g clip-path="url(#clip0_25_55)">
<g filter="url(#filter0_d_25_55)">
<path d="M303.59 161.865C304.028 164.316 303.262 166.983 301.101 168.835C299.825 169.929 298.489 170.934 297.096 171.857C295.46 172.942 293.753 173.908 291.986 174.75C288.72 176.299 285.24 177.416 281.645 178.059L129.369 205.291C122.79 206.467 116.08 206.74 109.429 206.099L47.7981 200.176C40.5559 199.48 37.435 190.639 42.6352 185.553L23.2763 139.544L38.8562 136.758L88.2836 178.008L274.811 144.651C279.401 143.83 284.147 145.263 287.388 148.586C287.483 148.668 287.56 148.753 287.644 148.843C289.185 150.509 290.923 151.967 292.807 153.201C293.312 153.531 293.832 153.846 294.361 154.141C294.396 154.166 294.43 154.184 294.465 154.203C295.832 154.966 297.266 155.619 298.752 156.151C301.467 157.119 303.145 159.379 303.59 161.865Z" fill="#46C3E0"/>
<path d="M184.173 205.014L215.388 199.431C216.929 199.156 217.955 197.683 217.679 196.142L215.302 182.847C215.026 181.306 213.553 180.28 212.012 180.556L180.797 186.138C175.585 187.07 172.115 192.052 173.047 197.264C173.979 202.476 178.961 205.946 184.173 205.014Z" fill="#3EB3C6"/>
<path d="M66.2966 184.723L30.0482 191.205C27.5662 191.649 25.1942 189.997 24.7503 187.515C24.3065 185.033 25.9588 182.661 28.4408 182.217L64.6892 175.734C67.1712 175.291 69.5433 176.943 69.9871 179.425C70.431 181.907 68.7786 184.279 66.2966 184.723Z" fill="#67DCEF"/>
<path d="M294.361 154.141L287.68 155.336C284.042 155.986 280.561 153.566 279.909 149.923L287.388 148.586C287.483 148.668 287.56 148.753 287.644 148.843C289.185 150.509 290.923 151.967 292.808 153.201C293.312 153.531 293.832 153.846 294.361 154.141Z" fill="#96E0DE"/>
<path d="M253.065 164.618C252.771 164.671 252.466 164.694 252.168 164.686C251.87 164.683 251.573 164.644 251.284 164.584C250.988 164.52 250.705 164.428 250.431 164.31C250.155 164.186 249.894 164.041 249.647 163.869C248.665 163.185 247.978 162.108 247.767 160.928C247.556 159.747 247.827 158.499 248.511 157.517C248.683 157.27 248.878 157.043 249.094 156.832C249.31 156.626 249.543 156.442 249.799 156.279C250.049 156.123 250.314 155.982 250.592 155.877C251.152 155.653 251.746 155.547 252.348 155.563C252.645 155.566 252.943 155.605 253.238 155.664C253.528 155.729 253.81 155.821 254.085 155.939C254.361 156.063 254.622 156.208 254.869 156.38C255.857 157.063 256.544 158.14 256.755 159.32C256.967 160.507 256.695 161.749 256.005 162.732C255.833 162.979 255.638 163.206 255.422 163.417C255.206 163.623 254.973 163.807 254.723 163.969C254.467 164.126 254.201 164.266 253.923 164.372C253.647 164.483 253.358 164.566 253.065 164.618Z" fill="#96E0DE"/>
<path d="M238.593 167.206C238.3 167.259 238.001 167.281 237.696 167.274C237.399 167.271 237.101 167.232 236.812 167.172C236.522 167.106 236.234 167.016 235.96 166.898C235.684 166.774 235.423 166.629 235.176 166.457C234.936 166.289 234.708 166.089 234.496 165.873C234.292 165.663 234.107 165.424 233.945 165.174C233.788 164.924 233.647 164.652 233.543 164.38C233.43 164.097 233.348 163.809 233.295 163.516C233.243 163.222 233.22 162.923 233.228 162.619C233.231 162.327 233.27 162.024 233.329 161.735C233.395 161.445 233.486 161.156 233.605 160.888C233.729 160.612 233.872 160.345 234.04 160.105C234.212 159.858 234.407 159.631 234.622 159.42C234.839 159.214 235.078 159.029 235.328 158.873C235.578 158.711 235.843 158.57 236.121 158.465C236.681 158.241 237.28 158.134 237.877 158.151C238.174 158.154 238.472 158.193 238.768 158.258C239.057 158.317 239.345 158.408 239.614 158.527C239.889 158.651 240.156 158.795 240.398 158.968C240.644 159.134 240.871 159.335 241.077 159.551C241.282 159.762 241.473 160 241.629 160.251C241.791 160.5 241.926 160.772 242.036 161.043C242.149 161.326 242.231 161.615 242.284 161.908C242.336 162.202 242.359 162.501 242.351 162.805C242.342 163.097 242.309 163.4 242.244 163.69C242.184 163.979 242.088 164.268 241.969 164.537C241.851 164.812 241.707 165.079 241.534 165.32C241.367 165.566 241.167 165.794 240.951 166.005C240.74 166.21 240.501 166.395 240.252 166.557C239.996 166.714 239.73 166.854 239.452 166.96C239.175 167.071 238.887 167.154 238.593 167.206Z" fill="#96E0DE"/>
<path d="M224.122 169.794C222.942 170.005 221.693 169.734 220.71 169.044C220.464 168.877 220.237 168.677 220.025 168.461C219.82 168.25 219.635 168.011 219.473 167.762C219.317 167.512 219.176 167.24 219.072 166.968C218.959 166.685 218.877 166.397 218.824 166.103C218.612 164.917 218.885 163.675 219.574 162.692C220.431 161.463 221.891 160.707 223.412 160.738C223.703 160.742 224.007 160.78 224.295 160.84C224.585 160.905 224.874 160.996 225.142 161.115C225.418 161.239 225.685 161.383 225.926 161.556C226.914 162.239 227.601 163.316 227.813 164.496C227.865 164.79 227.888 165.089 227.88 165.393C227.877 165.684 227.838 165.988 227.779 166.277C227.713 166.567 227.622 166.855 227.503 167.124C227.379 167.4 227.235 167.666 227.062 167.908C226.379 168.896 225.303 169.583 224.122 169.794Z" fill="#96E0DE"/>
<path d="M209.651 172.382C209.357 172.434 209.058 172.457 208.76 172.448C208.463 172.446 208.165 172.406 207.87 172.348C207.58 172.282 207.292 172.192 207.023 172.073C206.747 171.949 206.48 171.805 206.239 171.632C205.993 171.465 205.765 171.265 205.56 171.048C205.355 170.837 205.164 170.599 205.008 170.349C204.846 170.1 204.712 169.833 204.6 169.556C204.488 169.273 204.405 168.985 204.353 168.691C204.3 168.398 204.278 168.099 204.285 167.794C204.295 167.502 204.327 167.199 204.393 166.909C204.452 166.621 204.549 166.331 204.668 166.063C204.786 165.788 204.93 165.521 205.103 165.28C205.269 165.034 205.47 164.806 205.686 164.594C205.896 164.39 206.135 164.205 206.386 164.049C206.641 163.885 206.907 163.745 207.185 163.64C208.588 163.086 210.226 163.288 211.461 164.143C211.701 164.31 211.929 164.511 212.14 164.726C212.345 164.937 212.53 165.176 212.692 165.425C212.848 165.676 212.99 165.947 213.094 166.219C213.206 166.502 213.289 166.79 213.341 167.084C213.394 167.378 213.416 167.677 213.409 167.981C213.406 168.278 213.367 168.576 213.307 168.865C213.242 169.155 213.151 169.443 213.032 169.712C212.908 169.987 212.764 170.254 212.597 170.495C211.908 171.484 210.837 172.17 209.651 172.382Z" fill="#96E0DE"/>
<path d="M137.3 185.321C137.006 185.373 136.708 185.396 136.409 185.387C136.112 185.385 135.808 185.346 135.519 185.287C135.229 185.221 134.941 185.13 134.672 185.011C134.397 184.887 134.13 184.743 133.888 184.57C133.642 184.404 133.415 184.203 133.203 183.988C132.998 183.777 132.813 183.538 132.651 183.289C132.495 183.038 132.354 182.767 132.25 182.495C132.137 182.212 132.055 181.924 132.002 181.63C131.791 180.45 132.063 179.201 132.753 178.218C132.919 177.972 133.119 177.745 133.336 177.539C133.546 177.328 133.785 177.143 134.035 176.987C134.284 176.825 134.556 176.684 134.834 176.578C136.238 176.024 137.875 176.226 139.104 177.082C140.092 177.765 140.78 178.842 140.991 180.023C141.043 180.316 141.066 180.615 141.058 180.92C141.055 181.211 141.016 181.515 140.957 181.803C140.891 182.093 140.8 182.382 140.681 182.65C140.558 182.926 140.414 183.193 140.24 183.434C139.557 184.422 138.487 185.108 137.3 185.321Z" fill="#96E0DE"/>
<path d="M122.829 187.908C122.535 187.961 122.236 187.984 121.938 187.975C121.641 187.973 121.343 187.933 121.048 187.874C120.758 187.809 120.476 187.717 120.201 187.599C119.925 187.475 119.664 187.33 119.417 187.158C119.171 186.992 118.943 186.791 118.738 186.575C118.533 186.364 118.348 186.125 118.186 185.876C118.024 185.626 117.889 185.354 117.778 185.083C117.666 184.8 117.583 184.512 117.531 184.218C117.478 183.924 117.456 183.625 117.464 183.327C117.473 183.029 117.505 182.726 117.571 182.436C117.637 182.146 117.727 181.858 117.846 181.589C117.964 181.314 118.108 181.048 118.281 180.806C118.453 180.559 118.648 180.333 118.864 180.121C119.08 179.915 119.313 179.731 119.564 179.575C119.819 179.412 120.085 179.272 120.363 179.166C120.922 178.943 121.516 178.837 122.118 178.852C122.416 178.855 122.713 178.894 123.003 178.96C123.292 179.02 123.581 179.11 123.855 179.228C124.131 179.352 124.392 179.497 124.639 179.669C124.879 179.837 125.113 180.036 125.318 180.253C125.523 180.464 125.708 180.703 125.87 180.952C126.032 181.201 126.168 181.474 126.279 181.751C126.384 182.029 126.467 182.317 126.519 182.611C126.572 182.904 126.594 183.203 126.593 183.506C126.583 183.799 126.551 184.101 126.485 184.391C126.42 184.681 126.329 184.97 126.21 185.238C126.092 185.513 125.942 185.781 125.775 186.021C125.603 186.268 125.408 186.495 125.193 186.707C124.976 186.912 124.737 187.097 124.487 187.259C124.237 187.415 123.972 187.556 123.694 187.661C123.417 187.772 123.122 187.856 122.829 187.908Z" fill="#96E0DE"/>
<path d="M195.179 174.97C194.892 175.021 194.587 175.045 194.288 175.036C193.991 175.034 193.693 174.994 193.399 174.936C193.109 174.87 192.826 174.778 192.552 174.661C192.276 174.537 192.015 174.392 191.768 174.22C190.78 173.537 190.093 172.46 189.881 171.279C189.829 170.986 189.806 170.687 189.815 170.388C189.823 170.09 189.856 169.787 189.921 169.497C189.987 169.207 190.078 168.919 190.197 168.65C190.315 168.376 190.465 168.108 190.632 167.868C191.321 166.879 192.392 166.193 193.572 165.981C194.758 165.769 196.001 166.042 196.99 166.731C197.23 166.898 197.463 167.097 197.669 167.314C197.874 167.525 198.059 167.764 198.221 168.013C198.383 168.263 198.518 168.535 198.63 168.812C198.741 169.089 198.817 169.378 198.87 169.672C198.922 169.966 198.951 170.263 198.944 170.568C198.934 170.86 198.902 171.163 198.836 171.453C198.77 171.743 198.68 172.031 198.561 172.3C198.443 172.574 198.293 172.842 198.126 173.083C197.437 174.071 196.366 174.758 195.179 174.97Z" fill="#96E0DE"/>
<path d="M180.714 177.557C179.528 177.769 178.285 177.496 177.296 176.807C177.056 176.64 176.823 176.441 176.617 176.224C176.412 176.013 176.227 175.774 176.065 175.525C175.903 175.276 175.768 175.003 175.658 174.732C175.545 174.449 175.469 174.16 175.416 173.866C175.364 173.573 175.335 173.275 175.344 172.976C175.352 172.678 175.385 172.375 175.45 172.085C175.516 171.795 175.607 171.507 175.725 171.238C175.843 170.964 175.993 170.696 176.161 170.456C176.849 169.467 177.92 168.78 179.107 168.568C180.287 168.357 181.529 168.63 182.518 169.319C182.759 169.486 182.992 169.685 183.198 169.902C183.402 170.113 183.587 170.352 183.749 170.601C183.912 170.85 184.047 171.123 184.158 171.4C184.27 171.677 184.352 171.965 184.405 172.259C184.457 172.552 184.48 172.851 184.472 173.156C184.463 173.448 184.43 173.751 184.365 174.041C184.299 174.331 184.208 174.619 184.089 174.888C183.972 175.162 183.822 175.43 183.654 175.67C182.965 176.659 181.895 177.346 180.714 177.557Z" fill="#96E0DE"/>
<path d="M166.243 180.145C165.949 180.197 165.65 180.22 165.346 180.212C165.049 180.21 164.751 180.17 164.462 180.111C164.172 180.045 163.884 179.954 163.609 179.837C163.333 179.713 163.072 179.568 162.825 179.395C162.585 179.228 162.351 179.029 162.146 178.812C161.941 178.601 161.756 178.362 161.594 178.113C161.432 177.864 161.297 177.591 161.186 177.32C161.08 177.036 160.997 176.748 160.945 176.454C160.892 176.161 160.87 175.862 160.871 175.558C160.881 175.266 160.913 174.963 160.979 174.673C161.044 174.383 161.135 174.095 161.254 173.826C161.372 173.552 161.522 173.284 161.689 173.044C161.861 172.796 162.056 172.57 162.273 172.364C162.489 172.158 162.727 171.967 162.978 171.811C163.227 171.649 163.493 171.509 163.771 171.404C164.33 171.18 164.924 171.074 165.526 171.09C165.824 171.092 166.121 171.132 166.417 171.196C166.706 171.256 166.99 171.354 167.264 171.471C167.539 171.589 167.8 171.734 168.047 171.907C168.293 172.073 168.521 172.273 168.726 172.49C168.931 172.701 169.116 172.94 169.278 173.189C169.44 173.438 169.576 173.711 169.686 173.982C169.798 174.265 169.881 174.553 169.933 174.847C169.986 175.14 170.008 175.439 170.001 175.744C169.991 176.036 169.959 176.339 169.893 176.629C169.828 176.919 169.737 177.207 169.618 177.476C169.5 177.75 169.356 178.017 169.183 178.258C169.011 178.506 168.816 178.732 168.601 178.944C168.384 179.15 168.151 179.333 167.901 179.496C167.645 179.653 167.38 179.793 167.102 179.898C166.825 180.01 166.536 180.092 166.243 180.145Z" fill="#96E0DE"/>
<path d="M151.771 182.733C150.585 182.945 149.343 182.672 148.36 181.982C148.114 181.816 147.886 181.616 147.674 181.4C147.47 181.189 147.285 180.95 147.123 180.701C146.967 180.45 146.825 180.179 146.721 179.907C146.609 179.624 146.526 179.336 146.474 179.042C146.421 178.748 146.398 178.45 146.406 178.145C146.409 177.854 146.448 177.55 146.508 177.261C146.573 176.971 146.664 176.683 146.783 176.414C146.907 176.139 147.051 175.872 147.224 175.63C148.074 174.402 149.546 173.644 151.055 173.678C151.352 173.68 151.656 173.719 151.946 173.784C152.235 173.844 152.523 173.935 152.792 174.053C153.068 174.177 153.334 174.321 153.576 174.495C153.822 174.661 154.049 174.861 154.261 175.077C154.466 175.288 154.651 175.527 154.807 175.777C154.969 176.026 155.11 176.298 155.215 176.57C155.327 176.853 155.409 177.141 155.462 177.435C155.514 177.728 155.537 178.027 155.53 178.332C155.526 178.623 155.488 178.927 155.422 179.217C155.362 179.506 155.272 179.794 155.153 180.062C155.029 180.338 154.885 180.605 154.712 180.846C154.545 181.093 154.345 181.32 154.129 181.532C153.918 181.736 153.679 181.921 153.43 182.083C153.18 182.24 152.908 182.381 152.63 182.486C152.353 182.598 152.065 182.68 151.771 182.733Z" fill="#96E0DE"/>
<path d="M217.405 184.229L166.67 193.302C164.188 193.746 161.816 192.093 161.372 189.611C160.928 187.129 162.581 184.757 165.063 184.313L215.797 175.24C218.279 174.797 220.651 176.449 221.095 178.931C221.539 181.413 219.887 183.785 217.405 184.229Z" fill="#67DCEF"/>
<path d="M303.59 161.865C304.028 164.316 303.262 166.983 301.101 168.835C299.825 169.929 298.489 170.934 297.096 171.857C294.431 170.126 292.46 167.337 291.857 163.964C291.21 160.344 292.273 156.815 294.465 154.203C295.832 154.966 297.266 155.619 298.752 156.151C301.467 157.119 303.145 159.379 303.59 161.865Z" fill="#67DCEF"/>
</g>
</g>
<defs>
<filter id="filter0_d_25_55" x="19.2763" y="136.758" width="288.432" height="77.6786" filterUnits="userSpaceOnUse" color-interpolation-filters="sRGB">
<feFlood flood-opacity="0" result="BackgroundImageFix"/>
<feColorMatrix in="SourceAlpha" type="matrix" values="0 0 0 0 0 0 0 0 0 0 0 0 0 0 0 0 0 0 127 0" result="hardAlpha"/>
<feOffset dy="4"/>
<feGaussianBlur stdDeviation="2"/>
<feComposite in2="hardAlpha" operator="out"/>
<feColorMatrix type="matrix" values="0 0 0 0 0 0 0 0 0 0 0 0 0 0 0 0 0 0 0.25 0"/>
<feBlend mode="normal" in2="BackgroundImageFix" result="effect1_dropShadow_25_55"/>
<feBlend mode="normal" in="SourceGraphic" in2="effect1_dropShadow_25_55" result="shape"/>
</filter>
<clipPath id="clip0_25_55">
<rect width="279" height="279" fill="white" transform="translate(0 49.115) rotate(-10.1391)"/>
</clipPath>
</defs>
</svg>
