<svg width="401" height="138" viewBox="0 0 401 138" fill="none" xmlns="http://www.w3.org/2000/svg">
<g filter="url(#filter0_d_25_31)">
<path d="M4 129.75C4 129.75 6.85051 85.0324 45.3328 103.561C45.3328 103.561 51.5684 72.5612 78.8267 86.1013C78.8267 86.1013 63.8614 19.4699 129.78 36.7513C129.78 36.7513 158.464 -15.8056 232.934 5.39533C307.583 26.5962 296.359 86.2794 296.359 86.2794C296.359 86.2794 341.077 68.8199 342.324 111.222C342.324 111.222 373.323 99.9977 396.484 129.928H4V129.75Z" fill="#B4E1F9"/>
<path d="M49.4305 113.716C49.4305 113.716 50.3213 84.8542 86.6657 95.0092C86.6657 95.0092 77.4014 39.0674 137.975 48.3316C137.975 48.3316 174.498 -0.483913 234.003 27.8433C293.508 56.1706 289.054 99.6413 289.054 99.6413C289.054 99.6413 306.692 91.2679 320.766 101.423C334.841 111.578 336.623 122.802 336.623 122.802C336.623 122.802 367.088 107.658 396.662 129.572C373.68 99.6413 342.502 110.865 342.502 110.865C341.255 68.6417 296.537 85.9231 296.537 85.9231C296.537 85.9231 307.761 26.2399 233.112 5.03898C158.464 -16.1619 129.958 36.395 129.958 36.395C64.0395 19.2917 79.0049 85.745 79.0049 85.745C51.5684 72.0267 45.511 103.205 45.511 103.205C7.02867 84.4978 4.17816 129.394 4.17816 129.394C4.17816 129.394 18.609 102.492 49.4305 113.716Z" fill="#E4F4FD"/>
</g>
<defs>
<filter id="filter0_d_25_31" x="0" y="0" width="400.662" height="137.928" filterUnits="userSpaceOnUse" color-interpolation-filters="sRGB">
<feFlood flood-opacity="0" result="BackgroundImageFix"/>
<feColorMatrix in="SourceAlpha" type="matrix" values="0 0 0 0 0 0 0 0 0 0 0 0 0 0 0 0 0 0 127 0" result="hardAlpha"/>
<feOffset dy="4"/>
<feGaussianBlur stdDeviation="2"/>
<feComposite in2="hardAlpha" operator="out"/>
<feColorMatrix type="matrix" values="0 0 0 0 0 0 0 0 0 0 0 0 0 0 0 0 0 0 0.25 0"/>
<feBlend mode="normal" in2="BackgroundImageFix" result="effect1_dropShadow_25_31"/>
<feBlend mode="normal" in="SourceGraphic" in2="effect1_dropShadow_25_31" result="shape"/>
</filter>
</defs>
</svg>
