<svg width="466" height="167" viewBox="0 0 466 167" fill="none" xmlns="http://www.w3.org/2000/svg">
<path d="M2.02954 166.475C2.02954 166.475 7.67201 95.2922 86.4507 119.599C86.4507 119.599 84.2806 63.6071 139.187 81.8369C139.187 81.8369 156.115 -4.53758 254.642 24.3262C353.17 53.1901 321.268 128.93 321.268 128.93C321.268 128.93 350.132 113.739 359.029 148.679C359.029 148.679 410.463 104.841 465.153 166.909H2.02954V166.475Z" fill="#B4E1F9"/>
<path d="M86.4507 119.599C86.4507 119.599 84.2806 63.6071 139.187 81.8369C139.187 81.8369 156.115 -4.53758 254.642 24.3262C353.17 53.1901 321.268 128.93 321.268 128.93C321.268 128.93 350.132 113.739 359.029 148.679C359.029 148.679 410.463 104.841 465.153 166.909C415.238 86.6113 363.587 133.488 363.587 133.488C363.587 107.662 333.204 112.22 333.204 112.22C349.914 57.7475 311.936 -4.32058 221.221 0.236868C130.506 4.79431 139.187 66.8624 139.187 66.8624C78.2041 48.6326 78.855 107.662 78.855 107.662C-19.6726 81.8368 2.0296 166.692 2.0296 166.692C2.0296 166.692 7.67201 95.2922 86.4507 119.599Z" fill="#E4F4FD"/>
</svg>
