<svg width="582" height="537" viewBox="0 0 582 537" fill="none" xmlns="http://www.w3.org/2000/svg">
<g clip-path="url(#clip0_29_174)">
<g filter="url(#filter0_d_29_174)">
<path d="M309.146 515.319L320.399 486.089L138.367 416.01L127.114 445.24C149.543 469.105 177.554 488.423 210.162 500.977C242.771 513.531 276.505 517.983 309.146 515.319Z" fill="#FD5F6E"/>
<path d="M130.237 387.454L73.735 294.433L69.8272 332.417C74.7851 358.754 84.3996 383.989 98.1339 406.884L130.237 387.454Z" fill="#B440A1"/>
<path d="M78.8788 317.843L81.0231 210.162C65.4578 250.594 62.3611 292.753 69.8276 332.416C72.8369 327.38 75.8558 322.527 78.8788 317.843Z" fill="#FD5F6E"/>
<path d="M500.977 371.837L345.58 470.357L356.366 506.299C420.375 486.816 475.075 439.117 500.977 371.837Z" fill="#FE4382"/>
<path d="M308.229 481.404C301.722 448.953 279.265 420.425 246.09 407.654C212.916 394.882 177.126 400.985 150.538 420.696C171.759 438.185 196.646 452.911 224.534 463.648C252.421 474.384 280.759 480.148 308.229 481.404Z" fill="#FB7A5B"/>
<path d="M356.367 506.298C359.405 496.301 362.01 486.736 364.245 477.542L340.5 468.4L308.23 481.403C310.437 492.41 310.816 503.868 309.146 515.318C325.241 514.005 341.069 510.955 356.367 506.298Z" fill="#FF2796"/>
<path d="M150.538 420.696L135.318 389.41L111.573 380.268C107.065 388.588 102.584 397.429 98.1339 406.884C106.361 420.596 116.056 433.473 127.115 445.24C133.554 435.627 141.519 427.381 150.538 420.696Z" fill="#FF2796"/>
<path d="M246.09 407.654C279.265 420.425 301.722 448.953 308.229 481.404C327.479 482.285 346.301 480.95 364.245 477.543L400.173 384.219L407.903 98.7105C396.622 91.8708 384.582 85.9293 371.838 81.023C359.093 76.1167 346.177 72.4504 333.222 69.9597L147.501 286.944L111.573 380.267C122.599 394.829 135.667 408.44 150.538 420.695C177.126 400.985 212.916 394.882 246.09 407.654Z" fill="#FE4382"/>
<path d="M500.977 371.837C512.549 341.778 517.221 310.764 515.796 280.529L449.511 131.257C437.141 118.97 423.229 108.004 407.902 98.7102C339.576 278.727 400.126 329.949 364.244 477.541C427.175 465.588 479.282 428.191 500.977 371.837Z" fill="#FD5F6E"/>
<path d="M444.017 223.051C457.705 253.875 485.069 274.356 515.796 280.53C513.149 224.357 489.407 170.891 449.51 131.258C433.486 158.193 430.331 192.227 444.017 223.051Z" fill="#FBC566"/>
<path d="M333.222 69.9597C311.939 65.8689 290.552 64.9723 269.643 66.9822L124.015 200.602L78.8788 317.843C85.7623 339.676 96.8426 360.814 111.573 380.267C183.927 246.716 263.194 249.321 333.222 69.9597Z" fill="#FF2796"/>
<path d="M164.596 216.225C203.037 177.808 236.667 144.192 269.642 66.9818C187.461 74.8826 112.702 127.876 81.0231 210.162C67.5926 245.048 67.6918 282.36 78.8788 317.843C107.869 272.922 137.334 243.471 164.596 216.225Z" fill="#FB7A5B"/>
<path d="M216.155 335.686C214.667 339.551 216.594 343.891 220.46 345.379C224.325 346.867 228.665 344.94 230.154 341.075C231.642 337.209 229.715 332.869 225.849 331.381C221.983 329.893 217.643 331.82 216.155 335.686Z" fill="#B440A1"/>
<path d="M254.93 318.467C253.442 322.333 255.369 326.673 259.235 328.161C263.101 329.649 267.441 327.722 268.929 323.856C270.417 319.991 268.49 315.651 264.624 314.162C260.759 312.674 256.419 314.601 254.93 318.467Z" fill="#B440A1"/>
<path d="M419.882 417.504C418.394 421.37 420.321 425.71 424.187 427.198C428.052 428.686 432.393 426.759 433.881 422.893C435.369 419.028 433.442 414.688 429.576 413.199C425.71 411.711 421.37 413.639 419.882 417.504Z" fill="#FF2796"/>
</g>
</g>
<defs>
<filter id="filter0_d_29_174" x="61.9497" y="65.9514" width="458.095" height="458.109" filterUnits="userSpaceOnUse" color-interpolation-filters="sRGB">
<feFlood flood-opacity="0" result="BackgroundImageFix"/>
<feColorMatrix in="SourceAlpha" type="matrix" values="0 0 0 0 0 0 0 0 0 0 0 0 0 0 0 0 0 0 127 0" result="hardAlpha"/>
<feOffset dy="4"/>
<feGaussianBlur stdDeviation="2"/>
<feComposite in2="hardAlpha" operator="out"/>
<feColorMatrix type="matrix" values="0 0 0 0 0 0 0 0 0 0 0 0 0 0 0 0 0 0 0.25 0"/>
<feBlend mode="normal" in2="BackgroundImageFix" result="effect1_dropShadow_29_174"/>
<feBlend mode="normal" in="SourceGraphic" in2="effect1_dropShadow_29_174" result="shape"/>
</filter>
<clipPath id="clip0_29_174">
<rect width="450" height="450" fill="white" transform="translate(581.814 161.861) rotate(111.056)"/>
</clipPath>
</defs>
</svg>
