<svg width="319" height="319" viewBox="0 0 319 319" fill="none" xmlns="http://www.w3.org/2000/svg">
<g clip-path="url(#clip0_29_228)">
<g filter="url(#filter0_d_29_228)">
<path d="M118.191 223.159L115.067 229.977L125.294 234.664L135.521 239.351L138.646 232.532L128.419 227.846L118.191 223.159Z" fill="#5C546A"/>
<path d="M113.789 241.766L120.607 244.891L125.294 234.664L115.067 229.977L111.658 228.415C107.899 226.692 103.438 228.348 101.715 232.108L92.3413 252.563C90.6181 256.323 92.2764 260.783 96.0349 262.505L99.4439 264.068L108.818 243.613C109.68 241.731 111.906 240.904 113.789 241.766Z" fill="#888693"/>
<path d="M120.607 244.891L127.425 248.016C129.308 248.878 130.135 251.104 129.272 252.987L119.898 273.441L123.307 275.004C127.066 276.726 131.527 275.07 133.25 271.31L142.624 250.856C144.347 247.096 142.689 242.635 138.93 240.913L135.521 239.351L125.294 234.664L120.607 244.891Z" fill="#B6B8BE"/>
<path d="M114.069 151.144L83.3872 137.083L74.0134 157.538L104.695 171.598L114.069 151.144Z" fill="#5C546A"/>
<path d="M61.5152 184.81L81.9696 194.184C87.609 196.769 94.2992 194.283 96.8836 188.644L101.571 178.417L70.8889 164.356L61.5152 184.81Z" fill="#5C546A"/>
<path d="M76.5691 133.959L45.8875 119.898L36.5137 140.353L67.1953 154.413L76.5691 133.959Z" fill="#5C546A"/>
<path d="M33.3892 147.171L28.7023 157.398C26.1179 163.037 28.6032 169.728 34.2426 172.312L54.697 181.686L64.0708 161.231L33.3892 147.171Z" fill="#5C546A"/>
<path d="M89.0675 106.686L58.3859 92.6256L49.0121 113.08L79.6937 127.141L89.0675 106.686Z" fill="#5C546A"/>
<path d="M126.567 123.872L95.8856 109.811L86.5118 130.265L117.193 144.326L126.567 123.872Z" fill="#5C546A"/>
<path d="M101.566 79.4138L81.1114 70.04C75.4719 67.4556 68.7817 69.9409 66.1973 75.5804L61.5104 85.8076L92.192 99.8682L101.566 79.4138Z" fill="#5C546A"/>
<path d="M129.692 117.053L134.379 106.826C136.963 101.187 134.478 94.4965 128.838 91.9121L108.384 82.5383L99.0102 102.993L129.692 117.053Z" fill="#5C546A"/>
<path d="M117.193 144.326L86.5118 130.265L95.8856 109.811L126.567 123.872L129.692 117.053L99.0101 102.993L108.384 82.5384L101.566 79.4138L92.192 99.8682L61.5104 85.8076L58.3858 92.6257L89.0674 106.686L79.6937 127.141L49.0121 113.08L45.8875 119.898L76.5691 133.959L67.1953 154.413L36.5137 140.353L33.3891 147.171L64.0707 161.231L54.697 181.686L61.5151 184.81L70.8889 164.356L101.57 178.417L104.695 171.598L74.0134 157.538L83.3872 137.083L114.069 151.144L120.887 154.269L124.012 147.451L117.193 144.326Z" fill="#888693"/>
<path d="M264.068 219.885L233.386 205.824L224.012 226.279L254.694 240.339L264.068 219.885Z" fill="#5C546A"/>
<path d="M183.388 215.912L178.701 226.139C176.117 231.778 178.602 238.468 184.242 241.053L204.696 250.427L214.07 229.972L183.388 215.912Z" fill="#5C546A"/>
<path d="M211.514 253.551L231.969 262.925C237.608 265.51 244.298 263.024 246.883 257.385L251.569 247.158L220.888 233.097L211.514 253.551Z" fill="#5C546A"/>
<path d="M226.568 202.7L195.886 188.639L186.513 209.094L217.194 223.154L226.568 202.7Z" fill="#5C546A"/>
<path d="M251.565 148.155L231.11 138.781C225.471 136.196 218.781 138.682 216.196 144.321L211.509 154.548L242.191 168.609L251.565 148.155Z" fill="#5C546A"/>
<path d="M276.566 192.612L245.885 178.552L236.511 199.006L267.192 213.067L276.566 192.612Z" fill="#5C546A"/>
<path d="M278.837 160.653L258.383 151.279L249.009 171.734L279.691 185.794L284.378 175.567C286.962 169.928 284.477 163.237 278.837 160.653Z" fill="#5C546A"/>
<path d="M239.066 175.427L208.385 161.366L199.011 181.821L229.693 195.881L239.066 175.427Z" fill="#5C546A"/>
<path d="M258.383 151.279L251.565 148.155L242.191 168.609L211.509 154.548L208.385 161.366L239.066 175.427L229.693 195.882L199.011 181.821L192.193 178.696L189.068 185.514L195.886 188.639L226.568 202.7L217.194 223.154L186.513 209.093L183.388 215.912L214.07 229.972L204.696 250.427L211.514 253.551L220.888 233.097L251.569 247.157L254.694 240.339L224.012 226.279L233.386 205.824L264.068 219.885L267.192 213.067L236.511 199.006L245.885 178.552L276.566 192.612L279.691 185.794L249.009 171.734L258.383 151.279Z" fill="#888693"/>
<path d="M177.419 138.925L180.779 131.592C178.402 130.911 176.044 130.045 173.725 128.983C171.407 127.92 169.212 126.699 167.143 125.343L163.782 132.676L170.601 135.801L177.419 138.925Z" fill="#5C546A"/>
<path d="M201.567 158.242C203.29 154.482 201.632 150.022 197.873 148.299L177.419 138.925L170.601 135.801L162.789 152.846L169.607 155.971C175.256 158.559 177.736 165.237 175.148 170.885L145.464 235.657L152.282 238.782C157.922 241.366 164.612 238.881 167.196 233.241L189.068 185.515L192.193 178.696L201.567 158.242Z" fill="#FFCF00"/>
<path d="M155.971 149.722L162.789 152.846L170.601 135.801L163.782 132.676L143.328 123.303C139.57 121.58 135.109 123.236 133.385 126.996L124.012 147.451L120.887 154.269L99.0149 201.996C96.4304 207.635 98.9157 214.325 104.555 216.91L111.373 220.034L141.057 155.262C143.645 149.614 150.323 147.133 155.971 149.722Z" fill="#FF9300"/>
<path d="M198.075 75.8494L201.004 83.7334L210.645 88.1517L204.34 71.1795L205.466 68.722C204.831 68.7826 204.173 68.6856 203.551 68.4007L200.142 66.8384C199.52 66.5534 199.017 66.1181 198.648 65.5974L197.522 68.0549L180.549 74.3596L190.19 78.778L198.075 75.8494Z" fill="#5C546A"/>
<path d="M195.597 81.2558L190.19 78.778L180.549 74.3597L158.271 64.1499C156.36 63.2742 154.15 63.2441 152.209 64.0674C150.26 64.8923 148.74 66.512 148.036 68.5073C140.458 90.0093 148.633 113.202 167.143 125.343C169.212 126.699 171.407 127.92 173.725 128.983L195.597 81.2558Z" fill="#888693"/>
<path d="M203.551 68.4006C204.173 68.6856 204.831 68.7826 205.466 68.722C206.755 68.5988 207.944 67.8152 208.522 66.5539L213.209 56.3267C214.072 54.444 213.245 52.2181 211.362 51.3553L207.953 49.793C206.071 48.9302 203.845 49.7571 202.982 51.6398L198.295 61.867C197.717 63.1279 197.9 64.5411 198.648 65.5974C199.017 66.1181 199.52 66.5534 200.142 66.8383L203.551 68.4006Z" fill="#FFCF00"/>
<path d="M162.789 152.846L155.971 149.722C150.323 147.133 143.645 149.614 141.057 155.262L111.373 220.034L118.191 223.159L128.419 227.846L162.789 152.846Z" fill="#FF7400"/>
<path d="M195.597 81.2557L173.725 128.983C176.044 130.045 178.402 130.911 180.779 131.592C202.06 137.687 224.966 128.737 236.305 108.959C237.356 107.122 237.591 104.914 236.944 102.899C236.3 100.892 234.835 99.2373 232.924 98.3617L210.645 88.1519L201.004 83.7335L195.597 81.2557Z" fill="#B6B8BE"/>
<path d="M169.607 155.971L162.789 152.846L128.419 227.846L138.646 232.533L145.464 235.657L175.148 170.885C177.736 165.236 175.256 158.559 169.607 155.971Z" fill="#FF9300"/>
<path d="M113.789 241.766C111.906 240.904 109.68 241.731 108.818 243.613L99.444 264.068L109.671 268.754L120.607 244.891L113.789 241.766Z" fill="#5C546A"/>
<path d="M127.425 248.016L120.607 244.891L109.671 268.755L119.898 273.441L129.272 252.987C130.135 251.104 129.308 248.878 127.425 248.016Z" fill="#888693"/>
</g>
</g>
<defs>
<filter id="filter0_d_29_228" x="23.6799" y="49.4512" width="265.72" height="234.234" filterUnits="userSpaceOnUse" color-interpolation-filters="sRGB">
<feFlood flood-opacity="0" result="BackgroundImageFix"/>
<feColorMatrix in="SourceAlpha" type="matrix" values="0 0 0 0 0 0 0 0 0 0 0 0 0 0 0 0 0 0 127 0" result="hardAlpha"/>
<feOffset dy="4"/>
<feGaussianBlur stdDeviation="2"/>
<feComposite in2="hardAlpha" operator="out"/>
<feColorMatrix type="matrix" values="0 0 0 0 0 0 0 0 0 0 0 0 0 0 0 0 0 0 0.25 0"/>
<feBlend mode="normal" in2="BackgroundImageFix" result="effect1_dropShadow_29_228"/>
<feBlend mode="normal" in="SourceGraphic" in2="effect1_dropShadow_29_228" result="shape"/>
</filter>
<clipPath id="clip0_29_228">
<rect width="240" height="240" fill="white" transform="translate(100.568 0.580811) rotate(24.6208)"/>
</clipPath>
</defs>
</svg>
