<svg width="306" height="155" viewBox="0 0 306 155" fill="none" xmlns="http://www.w3.org/2000/svg">
<g filter="url(#filter0_d_29_129)">
<path d="M141.78 99.7493C142.104 97.8945 143.545 96.4369 145.395 96.089L171.476 91.1942L179.159 95.7169L180.238 89.5498L183.83 69.0286L184.909 62.8626L176.148 64.5066L150.066 69.4012C148.216 69.7491 146.775 71.2067 146.451 73.0615L110.867 66.8336L105.417 97.9694L144.642 104.834L143.937 104.42C142.315 103.465 141.455 101.604 141.78 99.7493Z" fill="#B6B8BE"/>
<path d="M146.45 73.062C146.775 71.2072 148.216 69.7495 150.066 69.4016L176.148 64.5071L153.279 51.0448C151.657 50.0895 150.797 48.229 151.121 46.3742C151.446 44.5194 152.887 43.0617 154.737 42.7138L155.538 42.5635L116.316 35.6988L110.867 66.8346L146.45 73.0625L146.45 73.062Z" fill="#E3E6E9"/>
<path d="M48.5951 55.9352L61.939 58.2706C62.1881 56.8478 62.7084 55.4725 63.4854 54.2287C64.0681 53.2958 64.7954 52.4375 65.661 51.6888C65.9494 51.439 66.2534 51.2016 66.5722 50.9778C68.2467 49.8022 70.1295 49.145 72.0305 48.9729C72.3019 48.9482 72.5744 48.9334 72.8457 48.9287C73.57 48.9157 74.2935 48.9724 75.0052 49.097C77.8508 49.595 80.5069 51.179 82.298 53.7302C84.0892 56.2813 84.677 59.317 84.1789 62.1631L97.5228 64.4986L102.901 33.772C96.7574 33.2504 90.5742 33.2844 84.4265 33.9665L16.5118 41.5004L51.8068 37.5851L48.5951 55.9352Z" fill="#52798F"/>
<path d="M84.1789 62.1632C83.6807 65.0093 82.0968 67.6649 79.5457 69.456C74.4428 73.0383 67.4022 71.806 63.8199 66.7037C62.2526 64.4713 61.6069 61.8679 61.8036 59.3455C61.8312 58.9853 61.8768 58.6266 61.939 58.2707L48.5951 55.9352L45.3838 74.2837L74.8352 88.7672C80.3858 91.4967 86.1892 93.6293 92.1451 95.2247L97.5229 64.4981L84.179 62.1626L84.1789 62.1632Z" fill="#5D647F"/>
<path d="M260.764 74.7324L265.435 48.0446L278.778 50.3801L278.802 50.2433L278.233 50.2841L198.715 36.3667L194.044 63.0551L260.764 74.7324Z" fill="#E3E6E9"/>
<path d="M151.121 46.3736C150.797 48.2284 151.657 50.089 153.279 51.0443L176.148 64.5065L184.909 62.8625L189.58 36.1741L155.538 42.5624L154.737 42.7127C152.888 43.0606 151.446 44.5188 151.121 46.3736Z" fill="#D5D9DE"/>
<path d="M187.985 62.2852C188.517 62.1857 189.062 62.1825 189.596 62.2761L194.044 63.0546L198.715 36.3662L194.267 35.5877C193.733 35.4942 193.189 35.4975 192.656 35.5968L189.58 36.1742L184.909 62.8625L187.985 62.2852Z" fill="#B6B8BE"/>
<path d="M295.403 86.3563L296.426 80.5117C296.241 81.5084 295.841 83.62 295.403 86.3563Z" fill="#B6B8BE"/>
<path d="M296.246 48.9912L278.802 50.2434L278.778 50.3802L274.131 76.9318L291.575 75.6797C291.889 75.6571 292.196 75.6669 292.495 75.7061C294.604 75.9812 296.377 77.7045 296.534 79.8832C296.534 79.8866 296.532 79.9001 296.531 79.9096L300.074 59.6691C300.678 55.8944 301.082 53.273 301.074 53.1725C300.894 50.6821 298.735 48.8092 296.246 48.9912Z" fill="#B6B8BE"/>
<path d="M254.536 110.316L187.816 98.6388L183.145 125.326L249.865 137.003L254.536 110.316Z" fill="#B6B8BE"/>
<path d="M262.665 139.244L263.185 139.475L263.209 139.34L262.665 139.244Z" fill="#B6B8BE"/>
<path d="M179.159 95.7168L171.476 91.1941L145.395 96.0889C143.545 96.4368 142.104 97.8944 141.78 99.7492C141.455 101.604 142.315 103.465 143.937 104.42L144.641 104.835L177.185 123.992L174.488 122.404L179.159 95.7168Z" fill="#888693"/>
<path d="M183.368 97.8603C182.834 97.7668 182.323 97.5788 181.856 97.3045L179.159 95.7168L174.488 122.404L177.185 123.992C177.652 124.266 178.163 124.454 178.697 124.548L183.145 125.326L187.816 98.6388L183.368 97.8603Z" fill="#5C546A"/>
<path d="M283.837 119.89L267.856 112.788L263.209 139.339L263.185 139.475L279.166 146.577C281.446 147.594 284.113 146.566 285.128 144.286C285.219 144.081 285.358 143.53 285.517 142.838L290.188 116.15C290.029 116.843 289.889 117.393 289.798 117.598C288.784 119.878 286.117 120.906 283.837 119.89Z" fill="#5C546A"/>
<path d="M260.764 74.7324L194.044 63.0551L192.487 71.9504L189.373 89.7423L187.816 98.6388L254.536 110.316L260.764 74.7324Z" fill="#D5D9DE"/>
<path d="M192.487 71.9504L194.044 63.055L189.596 62.2765C189.062 62.183 188.517 62.1863 187.985 62.2856L184.909 62.8625L183.83 69.0285L180.238 89.5497L179.159 95.7168L181.856 97.3045C182.322 97.5787 182.834 97.7668 183.368 97.8603L187.816 98.6388L189.373 89.7423L192.487 71.9504Z" fill="#888693"/>
<path d="M292.495 75.7054C292.194 75.6658 291.886 75.6567 291.575 75.679L274.131 76.9312L274.108 77.0674L267.88 112.651L267.856 112.787L283.837 119.89C286.117 120.906 288.784 119.878 289.799 117.598C289.89 117.393 290.029 116.842 290.188 116.15C290.188 116.15 296.241 81.508 296.426 80.5112C296.487 80.1799 296.525 79.9738 296.531 79.9085C296.532 79.8995 296.534 79.8855 296.534 79.8821C296.376 77.7044 294.604 75.9805 292.495 75.7054Z" fill="#888693"/>
<path d="M110.867 66.8341L116.316 35.6984L111.232 34.8084C108.469 34.325 105.688 34.0089 102.901 33.7721L97.5228 64.4987L110.867 66.8341Z" fill="#B6B8BE"/>
<path d="M97.5228 64.4986L92.145 95.2252C94.8473 95.9491 97.5705 96.5965 100.333 97.08L105.417 97.9699L110.867 66.8341L97.5228 64.4986Z" fill="#888693"/>
<path d="M51.8068 37.5851L16.5118 41.5005C12.4613 41.9284 9.26592 44.9151 8.56343 48.9288C7.86094 52.9425 9.85204 56.8363 13.4962 58.6024L45.3838 74.2837L48.5951 55.9352L51.8068 37.5851Z" fill="#5C546A"/>
<path d="M63.8199 66.7036C62.2526 64.4712 61.6069 61.8678 61.8036 59.3454C61.6069 61.8678 62.2526 64.4712 63.8199 66.7036C67.4027 71.8066 74.4432 73.0388 79.5457 69.456C82.0968 67.6648 83.6808 65.0087 84.1789 62.1631C84.6769 59.3175 84.0892 56.2813 82.298 53.7302L63.8199 66.7036Z" fill="#FFCF00"/>
<path d="M63.4854 54.2288C64.0681 53.2959 64.7954 52.4376 65.6611 51.6888C64.7959 52.4376 64.0687 53.296 63.4854 54.2288Z" fill="#FFCF00"/>
<path d="M66.5723 50.9773C68.2468 49.8017 70.1296 49.1445 72.0306 48.9724C70.1295 49.145 68.2462 49.8016 66.5723 50.9773Z" fill="#FFCF00"/>
<path d="M61.939 58.2706C62.1881 56.8478 62.7084 55.4725 63.4854 54.2287C62.7085 55.472 62.1882 56.8473 61.939 58.2706Z" fill="#FFCF00"/>
<path d="M82.2981 53.7296C80.507 51.1784 77.8509 49.5944 75.0053 49.0964C74.2936 48.9718 73.5701 48.9151 72.8458 48.9282C72.5738 48.9333 72.302 48.9476 72.0307 48.9723C70.1296 49.1444 68.2462 49.8015 66.5724 50.9772C66.2535 51.2011 65.9496 51.4384 65.6612 51.6882C64.796 52.437 64.0687 53.2959 63.4855 54.2281C62.7085 55.472 62.1882 56.8473 61.939 58.2706C61.8768 58.6265 61.8312 58.9852 61.8037 59.3454C61.6069 61.8678 62.2526 64.4712 63.8199 66.7036L82.2981 53.7296Z" fill="#FFEDB9"/>
<path d="M263.209 139.34L267.856 112.788L267.88 112.652L254.536 110.316L249.865 137.003L249.865 137.004L262.665 139.244L263.209 139.34Z" fill="#5D647F"/>
<path d="M260.764 74.7324L254.536 110.316L267.88 112.652L274.108 77.0679L260.764 74.7324Z" fill="#52798F"/>
<path d="M260.764 74.7324L274.108 77.0679L274.131 76.9311L278.778 50.3801L265.435 48.0446L260.764 74.7324Z" fill="#6E8FA9"/>
</g>
<defs>
<filter id="filter0_d_29_129" x="4.42362" y="33.4138" width="300.651" height="121.556" filterUnits="userSpaceOnUse" color-interpolation-filters="sRGB">
<feFlood flood-opacity="0" result="BackgroundImageFix"/>
<feColorMatrix in="SourceAlpha" type="matrix" values="0 0 0 0 0 0 0 0 0 0 0 0 0 0 0 0 0 0 127 0" result="hardAlpha"/>
<feOffset dy="4"/>
<feGaussianBlur stdDeviation="2"/>
<feComposite in2="hardAlpha" operator="out"/>
<feColorMatrix type="matrix" values="0 0 0 0 0 0 0 0 0 0 0 0 0 0 0 0 0 0 0.25 0"/>
<feBlend mode="normal" in2="BackgroundImageFix" result="effect1_dropShadow_29_129"/>
<feBlend mode="normal" in="SourceGraphic" in2="effect1_dropShadow_29_129" result="shape"/>
</filter>
</defs>
</svg>
