<svg width="647" height="184" viewBox="0 0 647 184" fill="none" xmlns="http://www.w3.org/2000/svg">
<path d="M44.0182 68L22.6102 0.799988H33.6502L46.6102 42.848C46.9942 43.872 47.3462 45.088 47.6662 46.496C47.9862 47.84 48.2742 49.216 48.5302 50.624C48.7862 52.032 49.0102 53.344 49.2022 54.56C49.4582 55.776 49.6822 56.768 49.8742 57.536L47.0902 57.44C48.0502 54.048 48.7862 51.424 49.2982 49.568C49.8742 47.712 50.3222 46.304 50.6422 45.344C50.9622 44.32 51.2502 43.456 51.5062 42.752L63.6022 12.416H72.9142L84.6262 42.752C85.2662 44.288 85.8102 45.824 86.2582 47.36C86.7702 48.832 87.2182 50.336 87.6022 51.872C87.9862 53.344 88.4022 54.912 88.8502 56.576L86.3542 57.248C86.6742 55.52 86.8982 54.176 87.0262 53.216C87.2182 52.192 87.3782 51.36 87.5062 50.72C87.6342 50.08 87.7622 49.472 87.8902 48.896C88.0182 48.256 88.2102 47.456 88.4662 46.496C88.7862 45.536 89.2022 44.224 89.7142 42.56L102.482 0.799988H113.618L92.2102 68H85.0102L67.2502 25.952L68.1142 26.336L51.0262 68H44.0182Z" fill="white"/>
<path d="M127.739 68V0.799988H170.075V10.784H138.107V58.016H170.075V68H127.739ZM132.443 38.528V28.544H164.795V38.528H132.443Z" fill="white"/>
<path d="M0.40799 168V100.8H26.712C31.512 100.8 35.832 101.6 39.672 103.2C43.576 104.8 46.904 107.104 49.656 110.112C52.408 113.12 54.52 116.672 55.992 120.768C57.464 124.864 58.2 129.408 58.2 134.4C58.2 139.392 57.464 143.968 55.992 148.128C54.52 152.224 52.408 155.776 49.656 158.784C46.968 161.728 43.672 164 39.768 165.6C35.864 167.2 31.512 168 26.712 168H0.40799ZM10.776 159.072L10.488 158.016H26.232C29.624 158.016 32.632 157.472 35.256 156.384C37.944 155.296 40.184 153.76 41.976 151.776C43.832 149.728 45.24 147.232 46.2 144.288C47.16 141.344 47.64 138.048 47.64 134.4C47.64 130.752 47.16 127.488 46.2 124.608C45.24 121.664 43.832 119.168 41.976 117.12C40.12 115.072 37.88 113.504 35.256 112.416C32.632 111.328 29.624 110.784 26.232 110.784H10.2L10.776 109.92V159.072Z" fill="white"/>
<path d="M74.6205 168V100.8H116.956V110.784H84.9885V158.016H116.956V168H74.6205ZM79.3245 138.528V128.544H111.676V138.528H79.3245Z" fill="white"/>
<path d="M155.765 168L128.885 100.8H140.693L156.725 141.6C157.493 143.584 158.165 145.376 158.741 146.976C159.381 148.576 159.925 150.048 160.373 151.392C160.821 152.672 161.237 153.888 161.621 155.04C162.005 156.192 162.389 157.344 162.773 158.496L160.277 158.592C160.725 157.056 161.205 155.456 161.717 153.792C162.229 152.128 162.805 150.304 163.445 148.32C164.149 146.336 164.981 144.096 165.941 141.6L180.821 100.8H192.917L165.845 168H155.765Z" fill="white"/>
<path d="M199.882 183.36V175.872H255.946V183.36H199.882Z" fill="white"/>
<path d="M272.883 168V100.8H315.219V110.784H283.251V158.016H315.219V168H272.883ZM277.587 138.528V128.544H309.939V138.528H277.587Z" fill="white"/>
<path d="M334.252 168V100.8H344.62V158.016H376.108V168H334.252Z" fill="white"/>
<path d="M420.373 168.96C415.637 168.96 411.253 168.096 407.221 166.368C403.253 164.64 399.765 162.24 396.757 159.168C393.813 156.032 391.509 152.384 389.845 148.224C388.245 144 387.445 139.392 387.445 134.4C387.445 129.408 388.245 124.832 389.845 120.672C391.509 116.448 393.813 112.8 396.757 109.728C399.765 106.592 403.253 104.16 407.221 102.432C411.253 100.704 415.637 99.84 420.373 99.84C425.109 99.84 429.461 100.704 433.429 102.432C437.461 104.16 440.949 106.592 443.893 109.728C446.901 112.864 449.205 116.544 450.805 120.768C452.469 124.928 453.301 129.472 453.301 134.4C453.301 139.328 452.469 143.904 450.805 148.128C449.205 152.288 446.901 155.936 443.893 159.072C440.949 162.208 437.461 164.64 433.429 166.368C429.461 168.096 425.109 168.96 420.373 168.96ZM420.373 158.88C423.637 158.88 426.613 158.272 429.301 157.056C432.053 155.84 434.421 154.144 436.405 151.968C438.389 149.728 439.925 147.136 441.013 144.192C442.165 141.184 442.741 137.92 442.741 134.4C442.741 130.88 442.165 127.648 441.013 124.704C439.925 121.696 438.389 119.104 436.405 116.928C434.421 114.688 432.053 112.96 429.301 111.744C426.613 110.528 423.637 109.92 420.373 109.92C417.109 109.92 414.101 110.528 411.349 111.744C408.661 112.96 406.293 114.656 404.245 116.832C402.261 119.008 400.725 121.6 399.637 124.608C398.549 127.552 398.005 130.816 398.005 134.4C398.005 137.92 398.549 141.184 399.637 144.192C400.725 147.2 402.261 149.792 404.245 151.968C406.293 154.144 408.661 155.84 411.349 157.056C414.101 158.272 417.109 158.88 420.373 158.88Z" fill="white"/>
<path d="M469.739 168V100.8H497.099C500.747 100.8 504.043 101.728 506.987 103.584C509.995 105.376 512.395 107.84 514.187 110.976C515.979 114.112 516.875 117.6 516.875 121.44C516.875 125.28 515.979 128.768 514.187 131.904C512.395 135.04 509.995 137.568 506.987 139.488C504.043 141.344 500.747 142.272 497.099 142.272H480.107V168H469.739ZM480.107 132.288H496.907C498.635 132.288 500.203 131.808 501.611 130.848C503.019 129.824 504.139 128.512 504.971 126.912C505.867 125.248 506.315 123.424 506.315 121.44C506.315 119.456 505.867 117.664 504.971 116.064C504.139 114.464 503.019 113.184 501.611 112.224C500.203 111.264 498.635 110.784 496.907 110.784H480.107V132.288Z" fill="white"/>
<path d="M532.983 168V100.8H575.319V110.784H543.351V158.016H575.319V168H532.983ZM537.687 138.528V128.544H570.039V138.528H537.687Z" fill="white"/>
<path d="M594.352 168V100.8H622.96C626.8 100.8 630.32 101.76 633.52 103.68C636.784 105.536 639.376 108.096 641.296 111.36C643.216 114.56 644.176 118.176 644.176 122.208C644.176 125.856 643.216 129.248 641.296 132.384C639.376 135.52 636.816 138.048 633.616 139.968C630.416 141.824 626.864 142.752 622.96 142.752H604.72V168H594.352ZM634.288 168L617.2 137.664L627.856 135.264L646.864 168.096L634.288 168ZM604.72 132.768H623.92C625.776 132.768 627.44 132.32 628.912 131.424C630.384 130.464 631.536 129.184 632.368 127.584C633.2 125.92 633.616 124.096 633.616 122.112C633.616 119.872 633.072 117.92 631.984 116.256C630.96 114.528 629.488 113.184 627.568 112.224C625.712 111.264 623.6 110.784 621.232 110.784H604.72V132.768Z" fill="white"/>
<path d="M194.573 72.5121L233.506 17.7397L256.354 33.9805C259.849 36.4648 262.426 39.0815 264.084 41.8304C265.742 44.5793 266.429 47.4235 266.146 50.3629C265.952 53.2872 264.798 56.2361 262.684 59.2094C260.571 62.1828 257.938 64.1195 254.785 65.0195C251.685 65.9566 248.396 65.7782 244.919 64.4842L246.031 62.9193C248.112 65.1836 249.583 67.6429 250.445 70.2969C251.344 72.8988 251.584 75.5431 251.166 78.2299C250.801 80.9537 249.709 83.5936 247.892 86.1497C246.038 88.7579 243.971 90.7826 241.69 92.2237C239.499 93.6498 237.112 94.4662 234.531 94.673C232.002 94.9169 229.357 94.6067 226.595 93.7426C223.869 92.8263 221.072 91.3485 218.203 89.3091L194.573 72.5121ZM208.808 70.3814L223.518 80.8378C225.657 82.3581 227.679 83.3243 229.585 83.7366C231.542 84.1859 233.339 84.0888 234.974 83.4452C236.699 82.7865 238.173 81.5965 239.396 79.8751C240.546 78.258 241.085 76.5604 241.014 74.7825C240.995 73.0416 240.407 71.3281 239.25 69.6419C238.13 67.9035 236.501 66.2742 234.362 64.7539L220.043 54.5756L208.808 70.3814ZM225.827 46.438L239.755 56.3382C241.32 57.4506 242.925 58.1202 244.57 58.3471C246.267 58.611 247.844 58.4363 249.3 57.8229C250.809 57.2465 252.064 56.2542 253.066 54.8457C254.734 52.4983 255.231 50.1425 254.556 47.7781C253.881 45.4138 252.083 43.1934 249.162 41.117L236.173 31.8842L225.827 46.438Z" fill="white"/>
</svg>
