<svg width="278" height="191" viewBox="0 0 278 191" fill="none" xmlns="http://www.w3.org/2000/svg">
<path d="M21.712 68L0.303955 0.799988H11.344L24.304 42.848C24.688 43.872 25.04 45.088 25.36 46.496C25.68 47.84 25.968 49.216 26.224 50.624C26.48 52.032 26.704 53.344 26.896 54.56C27.152 55.776 27.376 56.768 27.568 57.536L24.784 57.44C25.744 54.048 26.48 51.424 26.992 49.568C27.568 47.712 28.016 46.304 28.336 45.344C28.656 44.32 28.944 43.456 29.2 42.752L41.296 12.416H50.608L62.32 42.752C62.96 44.288 63.504 45.824 63.952 47.36C64.464 48.832 64.912 50.336 65.296 51.872C65.68 53.344 66.096 54.912 66.544 56.576L64.048 57.248C64.368 55.52 64.592 54.176 64.72 53.216C64.912 52.192 65.072 51.36 65.2 50.72C65.328 50.08 65.456 49.472 65.584 48.896C65.712 48.256 65.904 47.456 66.16 46.496C66.48 45.536 66.896 44.224 67.408 42.56L80.176 0.799988H91.312L69.904 68H62.704L44.944 25.952L45.808 26.336L28.72 68H21.712Z" fill="white"/>
<path d="M109.273 68V0.799988H151.609V10.784H119.641V58.016H151.609V68H109.273ZM113.977 38.528V28.544H146.329V38.528H113.977Z" fill="white"/>
<path d="M7.40796 175V107.8H33.712C38.512 107.8 42.832 108.6 46.672 110.2C50.576 111.8 53.904 114.104 56.656 117.112C59.408 120.12 61.52 123.672 62.992 127.768C64.464 131.864 65.2 136.408 65.2 141.4C65.2 146.392 64.464 150.968 62.992 155.128C61.52 159.224 59.408 162.776 56.656 165.784C53.968 168.728 50.672 171 46.768 172.6C42.864 174.2 38.512 175 33.712 175H7.40796ZM17.776 166.072L17.488 165.016H33.232C36.624 165.016 39.632 164.472 42.256 163.384C44.944 162.296 47.184 160.76 48.976 158.776C50.832 156.728 52.24 154.232 53.2 151.288C54.16 148.344 54.64 145.048 54.64 141.4C54.64 137.752 54.16 134.488 53.2 131.608C52.24 128.664 50.832 126.168 48.976 124.12C47.12 122.072 44.88 120.504 42.256 119.416C39.632 118.328 36.624 117.784 33.232 117.784H17.2L17.776 116.92V166.072Z" fill="white"/>
<path d="M85.4605 175V107.8H127.796V117.784H95.8285V165.016H127.796V175H85.4605ZM90.1645 145.528V135.544H122.516V145.528H90.1645Z" fill="white"/>
<path d="M146.349 190.36V182.872H202.413V190.36H146.349Z" fill="white"/>
<path d="M240.154 175L213.274 107.8H225.082L241.114 148.6C241.882 150.584 242.554 152.376 243.13 153.976C243.77 155.576 244.314 157.048 244.762 158.392C245.21 159.672 245.626 160.888 246.01 162.04C246.394 163.192 246.778 164.344 247.162 165.496L244.666 165.592C245.114 164.056 245.594 162.456 246.106 160.792C246.618 159.128 247.194 157.304 247.834 155.32C248.538 153.336 249.37 151.096 250.33 148.6L265.21 107.8H277.306L250.234 175H240.154Z" fill="white"/>
<path d="M155.121 71.5284L210.587 33.5894L226.413 56.7266C228.833 60.2658 230.347 63.6118 230.952 66.7644C231.558 69.9169 231.22 72.8234 229.938 75.4836C228.745 78.1606 226.643 80.5288 223.632 82.5884C220.621 84.6479 217.481 85.5551 214.211 85.3101C210.978 85.1178 207.954 83.8136 205.138 81.3974L206.723 80.3134C207.893 83.1575 208.423 85.9737 208.315 88.762C208.259 91.5141 207.57 94.0786 206.249 96.4553C204.965 98.8848 203.028 100.985 200.44 102.755C197.798 104.562 195.159 105.747 192.52 106.311C189.971 106.892 187.45 106.833 184.956 106.135C182.499 105.49 180.123 104.284 177.83 102.519C175.59 100.717 173.476 98.3633 171.489 95.458L155.121 71.5284ZM169.215 74.4493L179.404 89.3459C180.886 91.5117 182.449 93.1174 184.095 94.1629C185.776 95.2612 187.496 95.791 189.253 95.7523C191.099 95.7304 192.893 95.1232 194.636 93.9308C196.274 92.8107 197.367 91.4042 197.915 89.7113C198.499 88.0712 198.539 86.26 198.036 84.2778C197.586 82.2595 196.62 80.1674 195.139 78.0016L185.221 63.5012L169.215 74.4493ZM193.461 57.8646L203.109 71.9688C204.193 73.5535 205.467 74.7366 206.932 75.5179C208.433 76.3521 209.973 76.7332 211.552 76.6612C213.167 76.6419 214.688 76.1445 216.114 75.1689C218.491 73.543 219.772 71.5041 219.956 69.0521C220.14 66.6002 219.22 63.8952 217.196 60.937L208.199 47.7836L193.461 57.8646Z" fill="white"/>
</svg>
