<svg width="35" height="35" viewBox="0 0 35 35" fill="none" xmlns="http://www.w3.org/2000/svg">
<path fill-rule="evenodd" clip-rule="evenodd" d="M0 17.5C0 7.83502 7.83502 0 17.5 0C27.165 0 35 7.83502 35 17.5C35 27.165 27.165 35 17.5 35C7.83502 35 0 27.165 0 17.5ZM24.715 7.58333H10.8683C9.70067 7.58333 8.75 8.5225 8.75 9.68625V23.4879C8.75 24.6517 9.70067 25.5908 10.8683 25.5908H22.5863L22.0387 23.7023L23.3613 24.9171L24.6117 26.0604L26.8333 28V9.68625C26.8333 8.5225 25.8827 7.58333 24.715 7.58333Z" fill="white"/>
<path fill-rule="evenodd" clip-rule="evenodd" d="M20.7263 20.9154C20.7263 20.9154 20.3543 20.4765 20.0443 20.0885C21.398 19.7108 21.9147 18.8737 21.9147 18.8737C21.491 19.1494 21.088 19.3433 20.7263 19.476C20.2097 19.6904 19.7137 19.8333 19.228 19.915C18.236 20.0988 17.3267 20.0477 16.5517 19.9048C15.9627 19.7925 15.4563 19.6292 15.0327 19.4658C14.795 19.374 14.5367 19.2617 14.2783 19.1187C14.2473 19.0983 14.2163 19.0881 14.1853 19.0677C14.1647 19.0575 14.1543 19.0473 14.144 19.0371C13.958 18.935 13.8547 18.8635 13.8547 18.8635C13.8547 18.8635 14.3507 19.6802 15.663 20.0681C15.353 20.456 14.9707 20.9154 14.9707 20.9154C12.687 20.844 11.819 19.3638 11.819 19.3638C11.819 16.0767 13.307 13.4123 13.307 13.4123C14.795 12.3098 16.2107 12.3404 16.2107 12.3404L16.314 12.4629C14.454 12.9937 13.5963 13.8002 13.5963 13.8002C13.5963 13.8002 13.8237 13.6777 14.206 13.5042C15.3117 13.0244 16.19 12.8917 16.5517 12.861C16.6137 12.8508 16.6653 12.8406 16.7273 12.8406C17.3577 12.759 18.0707 12.7385 18.8147 12.8202C19.7963 12.9325 20.8503 13.2183 21.925 13.8002C21.925 13.8002 21.1087 13.0346 19.352 12.5038L19.4967 12.3404C19.4967 12.3404 20.9123 12.3098 22.4003 13.4123C22.4003 13.4123 23.8883 16.0767 23.8883 19.3638C23.8883 19.3638 23.01 20.844 20.7263 20.9154ZM16.2124 16.3333C15.628 16.3333 15.1667 16.8589 15.1667 17.5C15.1667 18.1411 15.6383 18.6667 16.2124 18.6667C16.7967 18.6667 17.2581 18.1411 17.2581 17.5C17.2683 16.8589 16.7967 16.3333 16.2124 16.3333ZM19.9543 16.3333C19.3699 16.3333 18.9086 16.8589 18.9086 17.5C18.9086 18.1411 19.3802 18.6667 19.9543 18.6667C20.5387 18.6667 21 18.1411 21 17.5C21 16.8589 20.5387 16.3333 19.9543 16.3333Z" fill="white"/>
</svg>
