<svg width="35" height="35" viewBox="0 0 35 35" fill="none" xmlns="http://www.w3.org/2000/svg">
<path fill-rule="evenodd" clip-rule="evenodd" d="M17.5316 0.131226C7.88574 0.131226 0.0639648 8.0849 0.0639648 17.897C0.0639648 25.7466 5.06896 32.4061 12.0094 34.7552C12.8824 34.9197 13.2028 34.3698 13.2028 33.9006C13.2028 33.477 13.1866 32.0774 13.1791 30.5929C8.31963 31.6676 7.29421 28.4967 7.29421 28.4967C6.49963 26.4432 5.35475 25.8972 5.35475 25.8972C3.76991 24.7945 5.47421 24.8172 5.47421 24.8172C7.22826 24.9422 8.15186 26.648 8.15186 26.648C9.70979 29.364 12.2382 28.5788 13.235 28.1249C13.3917 26.9769 13.8444 26.1926 14.344 25.7492C10.4642 25.3 6.38566 23.7766 6.38566 16.9691C6.38566 15.0295 7.06801 13.4446 8.18541 12.2005C8.00405 11.7527 7.40615 9.94601 8.35462 7.49886C8.35462 7.49886 9.82144 7.02137 13.1595 9.31995C14.5528 8.92631 16.0471 8.72891 17.5316 8.72214C19.016 8.72891 20.5115 8.92631 21.9074 9.31995C25.2414 7.02137 26.7062 7.49886 26.7062 7.49886C27.657 9.94601 27.0588 11.7527 26.8774 12.2005C27.9974 13.4446 28.6752 15.0295 28.6752 16.9691C28.6752 23.7928 24.5888 25.2953 20.6992 25.7351C21.3257 26.2864 21.884 27.3676 21.884 29.0251C21.884 31.402 21.8638 33.3151 21.8638 33.9006C21.8638 34.3734 22.1782 34.9274 23.0636 34.7529C30.0002 32.4011 34.9989 25.7439 34.9989 17.897C34.9989 8.0849 27.1783 0.131226 17.5316 0.131226Z" fill="white"/>
<path fill-rule="evenodd" clip-rule="evenodd" d="M6.67983 25.6392C6.64136 25.7277 6.50483 25.7539 6.38045 25.6933C6.25376 25.6354 6.1826 25.515 6.22367 25.4265C6.26128 25.3356 6.3981 25.3106 6.5245 25.3709C6.65148 25.4291 6.7238 25.5506 6.67983 25.6392Z" fill="white"/>
<path fill-rule="evenodd" clip-rule="evenodd" d="M7.38735 26.4418C7.30405 26.5203 7.1412 26.4838 7.0307 26.3597C6.91644 26.2358 6.89504 26.0702 6.9795 25.9905C7.06541 25.9119 7.22334 25.9487 7.33789 26.0725C7.45215 26.1979 7.47442 26.3623 7.38735 26.4418Z" fill="white"/>
<path fill-rule="evenodd" clip-rule="evenodd" d="M8.07607 27.465C7.96905 27.5406 7.79405 27.4697 7.68586 27.3117C7.57884 27.1537 7.57884 26.9643 7.68818 26.8884C7.79665 26.8125 7.96905 26.8807 8.07868 27.0375C8.18541 27.1979 8.18541 27.3876 8.07607 27.465Z" fill="white"/>
<path fill-rule="evenodd" clip-rule="evenodd" d="M9.01962 28.4535C8.92388 28.5609 8.71996 28.532 8.5707 28.3855C8.41797 28.2423 8.37545 28.039 8.47148 27.9316C8.56839 27.8239 8.77347 27.8542 8.92388 27.9995C9.07545 28.1425 9.12173 28.3473 9.01962 28.4535Z" fill="white"/>
<path fill-rule="evenodd" clip-rule="evenodd" d="M10.3213 29.0275C10.279 29.1666 10.0826 29.2299 9.88479 29.1708C9.68723 29.1099 9.55793 28.9469 9.59785 28.8062C9.63892 28.6662 9.83619 28.6003 10.0355 28.6636C10.2328 28.7242 10.3624 28.886 10.3213 29.0275Z" fill="white"/>
<path fill-rule="evenodd" clip-rule="evenodd" d="M11.7508 29.134C11.7557 29.2805 11.5879 29.402 11.3802 29.4044C11.1714 29.4094 11.0025 29.2908 11.0002 29.1466C11.0002 28.9987 11.1642 28.8783 11.373 28.8748C11.5807 28.8707 11.7508 28.9884 11.7508 29.134Z" fill="white"/>
<path fill-rule="evenodd" clip-rule="evenodd" d="M13.0811 28.9036C13.1059 29.0466 12.9616 29.1934 12.7554 29.2322C12.5526 29.2702 12.3649 29.1819 12.3391 29.0401C12.314 28.8936 12.4609 28.7468 12.6634 28.7089C12.8699 28.6724 13.0547 28.7583 13.0811 28.9036Z" fill="white"/>
</svg>
