<svg width="129" height="122" viewBox="0 0 129 122" fill="none" xmlns="http://www.w3.org/2000/svg">
<path d="M64.5 52.1911H54.354V86.9776C51.4551 96.3989 39.8596 86.9776 39.8596 86.9776L35.5113 91.3259C44.7877 105.82 64.5 97.1236 64.5 86.9776V52.1911Z" fill="white"/>
<path d="M106.611 57.7829L102.253 64.5566C96.4418 59.5391 79.0091 55.5287 84.82 67.5672C106.611 75.0935 102.253 72.8356 106.611 77.3514C109.516 80.3619 109.295 87.8882 106.611 91.6514C96.7323 105.5 79.7355 97.4215 72.4719 91.6514L79.0091 84.125C92.0836 98.425 113.148 84.125 81.9146 77.3514C78.0407 75.5952 71.7455 69.2229 77.5564 57.7829C83.3673 46.3429 99.3472 53.0163 106.611 57.7829Z" fill="white"/>
<path d="M26.0899 80.4551C26.0899 87.6596 20.2495 93.5001 13.0449 93.5001C5.84042 93.5001 0 87.6596 0 80.4551C0 73.2506 5.84042 67.4102 13.0449 67.4102C20.2495 67.4102 26.0899 73.2506 26.0899 80.4551Z" fill="white"/>
<path d="M21.7416 80.4551C21.7416 85.2581 17.848 89.1517 13.045 89.1517C8.24194 89.1517 4.34833 85.2581 4.34833 80.4551C4.34833 75.6521 8.24194 71.7584 13.045 71.7584C17.848 71.7584 21.7416 75.6521 21.7416 80.4551Z" fill="white"/>
<path d="M8.69666 0.735985H129V7.98318H8.69666V0.735985Z" fill="white"/>
<path d="M8.69666 60.163V7.98318L15.9438 7.98322V60.163H8.69666Z" fill="white"/>
<path d="M121.753 121.039V0.735962L129 0.735985L129 121.039H121.753Z" fill="white"/>
<path d="M8.69666 113.792H129L129 121.039H8.69666V113.792Z" fill="white"/>
<path d="M8.69666 113.792V100.747H17.3933V113.792H8.69666Z" fill="white"/>
</svg>
