<?xml version="1.0" encoding="UTF-8"?>
<!DOCTYPE svg  PUBLIC '-//W3C//DTD SVG 1.1//EN'  'http://www.w3.org/Graphics/SVG/1.1/DTD/svg11.dtd'>
<svg clip-rule="evenodd" stroke-linecap="round" stroke-linejoin="round" stroke-miterlimit="10" version="1.1" viewBox="0 0 1920 1080" xmlSpace="preserve" xmlns="http://www.w3.org/2000/svg" xmlnsVectornator="http://vectornator.io">
<defs>
<clipPath id="d">
<rect x="649.95" y="93.418" width="295.69" height="167.75"/>
</clipPath>

<clipPath id="f">
<rect x="881.59" y="142.86" width="210.64" height="212.72"/>
</clipPath>
<clipPath id="b">
<rect x="724.21" y="266.4" width="381.78" height="167.75"/>
</clipPath>
<clipPath id="c">
<rect x="414.42" y="509.46" width="268.93" height="167.75"/>
</clipPath>
<clipPath id="e">
<rect x="660.82" y="549.98" width="190.06" height="188.11"/>
</clipPath>
<clipPath id="a">
<rect x="410.94" y="680.57" width="1015.7" height="167.75"/>
</clipPath>
</defs>
<clipPath id="g">
<rect width="1920" height="1080"/>
</clipPath>
<g clip-path="url(#g)" fill-rule="evenodd" vectornator:layerName="Layer 1">
<path d="m380.49 7.3908h1031.6v1088.4h-1031.6v-1088.4z" opacity="0"/>
<g fill="#fff">
<path d="m669.37 122.81 19.611 84.607 23.506-84.607h15.293l23.506 84.607 19.612-84.607h15.435l-27.33 104.01h-14.797l-24.001-86.235-24.143 86.235h-14.798l-27.187-104.01h15.293z" clip-path="url(#d)"/>
<path d="m800.7 122.81h75.828v12.744h-62.093v31.577h57.42v12.036h-57.42v35.259h63.155v12.39h-76.89v-104.01z" clip-path="url(#d)"/>
</g>

<path d="m983.51 231.79c4.374 4.029 8.336 6.555 11.886 7.578 5.578 1.608 10.648-0.07 15.228-5.035 4.6-4.999 5.67-10.238 3.21-15.715-1.4-3.083-4.35-6.702-8.86-10.859l-18.492-17.028-21.825 23.696 18.853 17.363zm-29.031 38.522c6.353 5.852 12.579 8.185 18.676 6.999 3.844-0.759 7.285-2.788 10.322-6.086 5.117-5.555 6.12-11.626 3.01-18.212-1.648-3.507-4.641-7.259-8.981-11.256l-20.571-18.946-24.798 26.924 22.342 20.577zm29.81-97.579 32.865 30.266c8.95 8.25 12.86 16.791 11.72 25.623-0.69 5.206-2.93 9.875-6.74 14.006-4.44 4.826-9.46 7.521-15.05 8.085-2.92 0.32-6.35-0.073-10.268-1.181 2.548 5.106 3.928 9.492 4.148 13.157 0.37 6.499-2.151 12.682-7.555 18.549-4.541 4.93-10.195 7.969-16.962 9.116-10.117 1.718-20.21-2.059-30.279-11.332l-32.34-29.787 70.461-76.502z" clip-path="url(#f)" fill="#fff"/>
<g fill="#fff">
<path d="m776.69 387.77c4.768 0 8.685-0.495 11.753-1.487 5.476-1.84 9.96-5.38 13.452-10.62 2.785-4.2 4.791-9.581 6.019-16.142 0.708-3.918 1.062-7.552 1.062-10.904 0-12.885-2.561-22.892-7.682-30.019-5.122-7.127-13.37-10.691-24.745-10.691h-24.993v79.863h25.134zm-39.294-91.97h42.126c14.302 0 25.394 5.074 33.277 15.222 7.033 9.157 10.549 20.886 10.549 35.188 0 11.045-2.077 21.028-6.23 29.949-7.316 15.765-19.895 23.647-37.737 23.647h-41.985v-104.01z" clip-path="url(#b)"/>
<path d="m842.82 295.8h75.828v12.744h-62.092v31.577h57.419v12.037h-57.419v35.258h63.154v12.39h-76.89v-104.01z" clip-path="url(#b)"/>
<path d="m927.14 417.93v-7.15h80.638v7.15h-80.638z" clip-path="url(#b)"/>
<path d="m1027 295.8 29.88 88.572 29.52-88.572h15.79l-37.95 104.01h-14.94l-37.87-104.01h15.57z" clip-path="url(#b)"/>
</g>
<g fill="#fff" opacity="0">
<path d="m433.83 538.86 19.612 84.607 23.505-84.607h15.293l23.506 84.607 19.612-84.607h15.435l-27.33 104.01h-14.797l-24.001-86.235-24.143 86.235h-14.798l-27.187-104.01h15.293z" clip-path="url(#c)"/>
<path d="m565.16 538.86h75.828v12.744h-62.093v31.577h57.42v12.036h-57.42v35.259h63.155v12.39h-76.89v-104.01z" clip-path="url(#c)"/>
</g>
<path d="m764.66 638.03c4.119 4.29 7.918 7.055 11.398 8.294 5.469 1.947 10.638 0.583 15.506-4.092 4.903-4.707 6.293-9.87 4.171-15.488-1.204-3.162-3.931-6.957-8.181-11.383l-17.408-18.13-23.237 22.312 17.751 18.487zm-31.34 36.668c5.982 6.231 12.053 8.942 18.211 8.132 3.883-0.522 7.442-2.336 10.677-5.441 5.447-5.231 6.821-11.229 4.121-17.993-1.429-3.601-4.187-7.53-8.273-11.786l-19.37-20.173-26.403 25.352 21.037 21.909zm35.741-95.566 30.942 32.226c8.435 8.784 11.812 17.549 10.132 26.294-1.006 5.154-3.535 9.676-7.587 13.566-4.732 4.544-9.905 6.926-15.518 7.146-2.94 0.141-6.333-0.462-10.178-1.809 2.23 5.253 3.341 9.715 3.333 13.387-0.032 6.509-2.925 12.526-8.679 18.051-4.834 4.642-10.664 7.328-17.489 8.057-10.204 1.095-20.046-3.295-29.527-13.169l-30.451-31.714 75.022-72.035z" clip-path="url(#e)" fill="#fff" opacity="0"/>
<g fill="#fff" opacity="0">
<path d="m463.41 801.93c4.768 0 8.685-0.495 11.753-1.487 5.475-1.841 9.96-5.381 13.452-10.62 2.785-4.201 4.791-9.582 6.018-16.142 0.708-3.918 1.062-7.552 1.062-10.904 0-12.885-2.56-22.892-7.681-30.019-5.122-7.128-13.37-10.691-24.745-10.691h-24.993v79.863h25.134zm-39.294-91.97h42.126c14.302 0 25.394 5.074 33.277 15.222 7.033 9.157 10.549 20.886 10.549 35.188 0 11.045-2.077 21.028-6.23 29.949-7.317 15.765-19.895 23.647-37.737 23.647h-41.985v-104.01z" clip-path="url(#a)"/>
<path d="m529.54 709.96h75.828v12.744h-62.092v31.577h57.419v12.036h-57.419v35.259h63.154v12.39h-76.89v-104.01z" clip-path="url(#a)"/>
<path d="m633.12 709.96 29.878 88.572 29.524-88.572h15.788l-37.949 104.01h-14.939l-37.878-104.01h15.576z" clip-path="url(#a)"/>
<path d="m710.58 832.1v-7.151h80.642v7.151h-80.642z" clip-path="url(#a)"/>
<path d="m803.61 709.96h75.828v12.744h-62.093v31.577h57.42v12.036h-57.42v35.259h63.155v12.39h-76.89v-104.01z" clip-path="url(#a)"/>
<path d="m898.98 709.96h14.089v91.616h52.676v12.39h-66.765v-104.01z" clip-path="url(#a)"/>
<path d="m1024.5 707.13c18.36 0 31.95 5.9 40.78 17.7 6.89 9.204 10.34 20.981 10.34 35.33 0 15.529-3.95 28.438-11.83 38.728-9.25 12.083-22.44 18.125-39.58 18.125-16 0-28.576-5.287-37.733-15.86-8.165-10.195-12.248-23.081-12.248-38.657 0-14.066 3.493-26.102 10.478-36.108 8.969-12.839 22.233-19.258 39.793-19.258zm1.41 97.28c12.42 0 21.4-4.449 26.94-13.346 5.55-8.897 8.32-19.128 8.32-30.692 0-12.225-3.2-22.066-9.59-29.524-6.4-7.458-15.14-11.186-26.23-11.186-10.76 0-19.54 3.693-26.341 11.08-6.797 7.387-10.195 18.278-10.195 32.674 0 11.517 2.915 21.229 8.744 29.135 5.832 7.906 15.282 11.859 28.352 11.859z" clip-path="url(#a)"/>
<path d="m1093.8 709.96h46.8c9.25 0 16.71 2.608 22.37 7.823 5.67 5.216 8.5 12.544 8.5 21.984 0 8.119-2.53 15.187-7.58 21.205s-12.81 9.027-23.29 9.027h-32.71v43.967h-14.09v-104.01zm63.44 29.878c0-7.647-2.83-12.839-8.5-15.576-3.11-1.464-7.38-2.195-12.81-2.195h-28.04v36.037h28.04c6.32 0 11.46-1.345 15.4-4.035 3.94-2.691 5.91-7.434 5.91-14.231z" clip-path="url(#a)"/>
<path d="m1190.5 709.96h75.83v12.744h-62.09v31.577h57.42v12.036h-57.42v35.259h63.15v12.39h-76.89v-104.01z" clip-path="url(#a)"/>
<path d="m1334.2 757.61c6.61 0 11.84-1.322 15.68-3.965 3.85-2.643 5.77-7.411 5.77-14.302 0-7.41-2.69-12.461-8.07-15.151-2.88-1.416-6.72-2.124-11.54-2.124h-34.41v35.542h32.57zm-46.66-47.649h48.15c7.93 0 14.46 1.156 19.61 3.469 9.77 4.437 14.65 12.626 14.65 24.568 0 6.23-1.28 11.328-3.85 15.293-2.58 3.965-6.18 7.151-10.8 9.558 4.06 1.652 7.11 3.823 9.17 6.514 2.05 2.69 3.2 7.056 3.43 13.098l0.5 13.948c0.14 3.964 0.47 6.915 0.99 8.85 0.85 3.304 2.36 5.428 4.53 6.372v2.336h-17.28c-0.47-0.897-0.85-2.053-1.13-3.469s-0.52-4.154-0.71-8.213l-0.85-17.346c-0.33-6.797-2.85-11.352-7.57-13.665-2.69-1.274-6.92-1.911-12.68-1.911h-32.07v44.604h-14.09v-104.01z" clip-path="url(#a)"/>
</g>
</g>
</svg>
