<?xml version="1.0" encoding="UTF-8" standalone="no"?>
<!DOCTYPE svg PUBLIC "-//W3C//DTD SVG 1.1//EN" "http://www.w3.org/Graphics/SVG/1.1/DTD/svg11.dtd">
<!-- Created with Vectornator (http://vectornator.io/) -->
<svg height="100%" stroke-miterlimit="10" style="fill-rule:nonzero;clip-rule:evenodd;stroke-linecap:round;stroke-linejoin:round;" version="1.1" viewBox="0 0 1920 1080" width="100%" xmlSpace="preserve" xmlns="http://www.w3.org/2000/svg" xmlnsVectornator="http://vectornator.io" xmlnsXlink="http://www.w3.org/1999/xlink">
<defs>
<clipPath id="TextBounds">
<rect height="167.75" width="295.691" x="649.954" y="93.4175"/>
</clipPath>
<clipPath id="TextBounds_2">
<rect height="1" width="0" x="1013.77" y="454.05"/>
</clipPath>
<clipPath id="TextBounds_3">
<rect height="212.719" width="210.635" x="881.588" y="142.855"/>
</clipPath>
<clipPath id="TextBounds_4">
<rect height="167.75" width="381.784" x="724.214" y="266.4"/>
</clipPath>
<clipPath id="TextBounds_5">
<rect height="167.75" width="268.928" x="414.416" y="509.459"/>
</clipPath>
<clipPath id="TextBounds_6">
<rect height="188.109" width="190.064" x="660.823" y="549.978"/>
</clipPath>
<clipPath id="TextBounds_7">
<rect height="167.75" width="1015.66" x="410.935" y="680.567"/>
</clipPath>
</defs>
<clipPath id="ArtboardFrame">
<rect height="1080" width="1920" x="0" y="0"/>
</clipPath>
<g clip-path="url(#ArtboardFrame)" id="Layer-1" vectornator:layerName="Layer 1">
<path d="M380.493 7.39083L1412.05 7.39083L1412.05 1095.76L380.493 1095.76L380.493 7.39083Z" fill="#000000" fill-rule="evenodd" opacity="0" stroke="none"/>
<g fill="#ffffff" opacity="1" stroke="none">
<path clip-path="url(#TextBounds)" d="M669.367 122.814L688.978 207.421L712.484 122.814L727.777 122.814L751.283 207.421L770.895 122.814L786.33 122.814L759 226.82L744.203 226.82L720.202 140.585L696.059 226.82L681.261 226.82L654.074 122.814L669.367 122.814Z" fill-rule="evenodd"/>
<path clip-path="url(#TextBounds)" d="M800.702 122.814L876.53 122.814L876.53 135.558L814.437 135.558L814.437 167.135L871.857 167.135L871.857 179.171L814.437 179.171L814.437 214.43L877.592 214.43L877.592 226.82L800.702 226.82L800.702 122.814Z" fill-rule="evenodd"/>
</g>
<g fill="#ffffff" opacity="1" stroke="none"/>
<path clip-path="url(#TextBounds_3)" d="M983.506 231.794C987.88 235.823 991.842 238.349 995.392 239.372C1000.97 240.98 1006.04 239.302 1010.62 234.337C1015.22 229.338 1016.29 224.099 1013.83 218.622C1012.43 215.539 1009.48 211.92 1004.97 207.763L986.478 190.735L964.653 214.431L983.506 231.794ZM954.475 270.316C960.828 276.168 967.054 278.501 973.151 277.315C976.995 276.556 980.436 274.527 983.473 271.229C988.59 265.674 989.593 259.603 986.483 253.017C984.835 249.51 981.842 245.758 977.502 241.761L956.931 222.815L932.133 249.739L954.475 270.316ZM984.285 172.737L1017.15 203.003C1026.1 211.253 1030.01 219.794 1028.87 228.626C1028.18 233.832 1025.94 238.501 1022.13 242.632C1017.69 247.458 1012.67 250.153 1007.08 250.717C1004.16 251.037 1000.73 250.644 996.812 249.536C999.36 254.642 1000.74 259.028 1000.96 262.693C1001.33 269.192 998.809 275.375 993.405 281.242C988.864 286.172 983.21 289.211 976.443 290.358C966.326 292.076 956.233 288.299 946.164 279.026L913.824 249.239L984.285 172.737Z" fill="#ffffff" fill-rule="evenodd" opacity="1" stroke="none"/>
<g fill="#ffffff" opacity="1" stroke="none">
<path clip-path="url(#TextBounds_4)" d="M776.69 387.766C781.458 387.766 785.375 387.271 788.443 386.279C793.919 384.439 798.403 380.899 801.895 375.659C804.68 371.459 806.686 366.078 807.914 359.517C808.622 355.599 808.976 351.965 808.976 348.613C808.976 335.728 806.415 325.721 801.294 318.594C796.172 311.467 787.924 307.903 776.549 307.903L751.556 307.903L751.556 387.766L776.69 387.766ZM737.396 295.796L779.522 295.796C793.824 295.796 804.916 300.87 812.799 311.018C819.832 320.175 823.348 331.904 823.348 346.206C823.348 357.251 821.271 367.234 817.118 376.155C809.802 391.92 797.223 399.802 779.381 399.802L737.396 399.802L737.396 295.796Z" fill-rule="evenodd"/>
<path clip-path="url(#TextBounds_4)" d="M842.818 295.796L918.646 295.796L918.646 308.54L856.554 308.54L856.554 340.117L913.973 340.117L913.973 352.154L856.554 352.154L856.554 387.412L919.708 387.412L919.708 399.802L842.818 399.802L842.818 295.796Z" fill-rule="evenodd"/>
<path clip-path="url(#TextBounds_4)" d="M927.142 417.927L927.142 410.777L1007.78 410.777L1007.78 417.927L927.142 417.927Z" fill-rule="evenodd"/>
<path clip-path="url(#TextBounds_4)" d="M1027.04 295.796L1056.92 384.368L1086.44 295.796L1102.23 295.796L1064.28 399.802L1049.34 399.802L1011.47 295.796L1027.04 295.796Z" fill-rule="evenodd"/>
</g>
<g fill="#ffffff" opacity="0" stroke="none">
<path clip-path="url(#TextBounds_5)" d="M433.829 538.856L453.441 623.463L476.946 538.856L492.239 538.856L515.745 623.463L535.357 538.856L550.792 538.856L523.462 642.862L508.665 642.862L484.664 556.627L460.521 642.862L445.723 642.862L418.536 538.856L433.829 538.856Z" fill-rule="evenodd"/>
<path clip-path="url(#TextBounds_5)" d="M565.164 538.856L640.992 538.856L640.992 551.6L578.899 551.6L578.899 583.177L636.319 583.177L636.319 595.213L578.899 595.213L578.899 630.472L642.054 630.472L642.054 642.862L565.164 642.862L565.164 538.856Z" fill-rule="evenodd"/>
</g>
<path clip-path="url(#TextBounds_6)" d="M764.663 638.029C768.782 642.319 772.581 645.084 776.061 646.323C781.53 648.27 786.699 646.906 791.567 642.231C796.47 637.524 797.86 632.361 795.738 626.743C794.534 623.581 791.807 619.786 787.557 615.36L770.149 597.23L746.912 619.542L764.663 638.029ZM733.323 674.697C739.305 680.928 745.376 683.639 751.534 682.829C755.417 682.307 758.976 680.493 762.211 677.388C767.658 672.157 769.032 666.159 766.332 659.395C764.903 655.794 762.145 651.865 758.059 647.609L738.689 627.436L712.286 652.788L733.323 674.697ZM769.064 579.131L800.006 611.357C808.441 620.141 811.818 628.906 810.138 637.651C809.132 642.805 806.603 647.327 802.551 651.217C797.819 655.761 792.646 658.143 787.033 658.363C784.093 658.504 780.7 657.901 776.855 656.554C779.085 661.807 780.196 666.269 780.188 669.941C780.156 676.45 777.263 682.467 771.509 687.992C766.675 692.634 760.845 695.32 754.02 696.049C743.816 697.144 733.974 692.754 724.493 682.88L694.042 651.166L769.064 579.131Z" fill="#ffffff" fill-rule="evenodd" opacity="0" stroke="none"/>
<g fill="#ffffff" opacity="0" stroke="none">
<path clip-path="url(#TextBounds_7)" d="M463.411 801.934C468.179 801.934 472.096 801.439 475.164 800.447C480.639 798.606 485.124 795.066 488.616 789.827C491.401 785.626 493.407 780.245 494.634 773.685C495.342 769.767 495.696 766.133 495.696 762.781C495.696 749.896 493.136 739.889 488.015 732.762C482.893 725.634 474.645 722.071 463.27 722.071L438.277 722.071L438.277 801.934L463.411 801.934ZM424.117 709.964L466.243 709.964C480.545 709.964 491.637 715.038 499.52 725.186C506.553 734.343 510.069 746.072 510.069 760.374C510.069 771.419 507.992 781.402 503.839 790.323C496.522 806.088 483.944 813.97 466.102 813.97L424.117 813.97L424.117 709.964Z" fill-rule="evenodd"/>
<path clip-path="url(#TextBounds_7)" d="M529.539 709.964L605.367 709.964L605.367 722.708L543.275 722.708L543.275 754.285L600.694 754.285L600.694 766.321L543.275 766.321L543.275 801.58L606.429 801.58L606.429 813.97L529.539 813.97L529.539 709.964Z" fill-rule="evenodd"/>
<path clip-path="url(#TextBounds_7)" d="M633.121 709.964L662.999 798.536L692.523 709.964L708.311 709.964L670.362 813.97L655.423 813.97L617.545 709.964L633.121 709.964Z" fill-rule="evenodd"/>
<path clip-path="url(#TextBounds_7)" d="M710.577 832.095L710.577 824.944L791.219 824.944L791.219 832.095L710.577 832.095Z" fill-rule="evenodd"/>
<path clip-path="url(#TextBounds_7)" d="M803.609 709.964L879.437 709.964L879.437 722.708L817.344 722.708L817.344 754.285L874.764 754.285L874.764 766.321L817.344 766.321L817.344 801.58L880.499 801.58L880.499 813.97L803.609 813.97L803.609 709.964Z" fill-rule="evenodd"/>
<path clip-path="url(#TextBounds_7)" d="M898.978 709.964L913.067 709.964L913.067 801.58L965.743 801.58L965.743 813.97L898.978 813.97L898.978 709.964Z" fill-rule="evenodd"/>
<path clip-path="url(#TextBounds_7)" d="M1024.51 707.132C1042.87 707.132 1056.46 713.032 1065.29 724.832C1072.18 734.036 1075.63 745.813 1075.63 760.162C1075.63 775.691 1071.68 788.6 1063.8 798.89C1054.55 810.973 1041.36 817.015 1024.22 817.015C1008.22 817.015 995.644 811.728 986.487 801.155C978.322 790.96 974.239 778.074 974.239 762.498C974.239 748.432 977.732 736.396 984.717 726.39C993.686 713.551 1006.95 707.132 1024.51 707.132ZM1025.92 804.412C1038.34 804.412 1047.32 799.963 1052.86 791.066C1058.41 782.169 1061.18 771.938 1061.18 760.374C1061.18 748.149 1057.98 738.308 1051.59 730.85C1045.19 723.392 1036.45 719.664 1025.36 719.664C1014.6 719.664 1005.82 723.357 999.019 730.744C992.222 738.131 988.824 749.022 988.824 763.418C988.824 774.935 991.739 784.647 997.568 792.553C1003.4 800.459 1012.85 804.412 1025.92 804.412Z" fill-rule="evenodd"/>
<path clip-path="url(#TextBounds_7)" d="M1093.75 709.964L1140.55 709.964C1149.8 709.964 1157.26 712.572 1162.92 717.787C1168.59 723.003 1171.42 730.331 1171.42 739.771C1171.42 747.89 1168.89 754.958 1163.84 760.976C1158.79 766.994 1151.03 770.003 1140.55 770.003L1107.84 770.003L1107.84 813.97L1093.75 813.97L1093.75 709.964ZM1157.19 739.842C1157.19 732.195 1154.36 727.003 1148.69 724.266C1145.58 722.802 1141.31 722.071 1135.88 722.071L1107.84 722.071L1107.84 758.108L1135.88 758.108C1142.2 758.108 1147.34 756.763 1151.28 754.073C1155.22 751.382 1157.19 746.639 1157.19 739.842Z" fill-rule="evenodd"/>
<path clip-path="url(#TextBounds_7)" d="M1190.46 709.964L1266.29 709.964L1266.29 722.708L1204.2 722.708L1204.2 754.285L1261.62 754.285L1261.62 766.321L1204.2 766.321L1204.2 801.58L1267.35 801.58L1267.35 813.97L1190.46 813.97L1190.46 709.964Z" fill-rule="evenodd"/>
<path clip-path="url(#TextBounds_7)" d="M1334.19 757.613C1340.8 757.613 1346.03 756.291 1349.87 753.648C1353.72 751.005 1355.64 746.237 1355.64 739.346C1355.64 731.936 1352.95 726.885 1347.57 724.195C1344.69 722.779 1340.85 722.071 1336.03 722.071L1301.62 722.071L1301.62 757.613L1334.19 757.613ZM1287.53 709.964L1335.68 709.964C1343.61 709.964 1350.14 711.12 1355.29 713.433C1365.06 717.87 1369.94 726.059 1369.94 738.001C1369.94 744.231 1368.66 749.329 1366.09 753.294C1363.51 757.259 1359.91 760.445 1355.29 762.852C1359.35 764.504 1362.4 766.675 1364.46 769.366C1366.51 772.056 1367.66 776.422 1367.89 782.464L1368.39 796.412C1368.53 800.376 1368.86 803.327 1369.38 805.262C1370.23 808.566 1371.74 810.69 1373.91 811.634L1373.91 813.97L1356.63 813.97C1356.16 813.073 1355.78 811.917 1355.5 810.501C1355.22 809.085 1354.98 806.347 1354.79 802.288L1353.94 784.942C1353.61 778.145 1351.09 773.59 1346.37 771.277C1343.68 770.003 1339.45 769.366 1333.69 769.366L1301.62 769.366L1301.62 813.97L1287.53 813.97L1287.53 709.964Z" fill-rule="evenodd"/>
</g>
</g>
</svg>
